<svg xmlns="http://www.w3.org/2000/svg" viewBox="0 0 239.35 81.75"><defs><style>.cls-1{fill:#484ba0;}</style></defs><title>Signature</title><g id="Layer_2" data-name="Layer 2"><g id="Layer_1-2" data-name="Layer 1"><path class="cls-1" d="M20.89,63.36c.06-.1,0-.28-.29-.22a1.55,1.55,0,0,1-.27.31A2.36,2.36,0,0,0,20.89,63.36Z"/><path class="cls-1" d="M19.49,62c-.27-.16-.64-.44-.87-.14.41.2.33.35.83.43.16.19.25.42.13.49.11,0,.4.35.63.19a5.21,5.21,0,0,0-.93-.89C19.31,62,19.43,62,19.49,62Z"/><path class="cls-1" d="M28.72,42.25l-.11.1A.37.37,0,0,0,28.72,42.25Z"/><path class="cls-1" d="M36.94,31.17c-.06.09-.06.14,0,.17S37,31.17,36.94,31.17Z"/><path class="cls-1" d="M38.69,29.56l-.1.09C38.65,29.63,38.69,29.6,38.69,29.56Z"/><path class="cls-1" d="M28.72,42.25,29,42C28.93,41.92,28.84,42.12,28.72,42.25Z"/><path class="cls-1" d="M18.61,58.77a.56.56,0,0,0,0,.22l0-.2Z"/><path class="cls-1" d="M25.67,47.52l-.06.1a.82.82,0,0,0,.07.15Z"/><path class="cls-1" d="M23.37,51.56c.06-.09-.17-.25-.26-.35a.34.34,0,0,1,.06.29A.47.47,0,0,0,23.37,51.56Z"/><path class="cls-1" d="M19.9,58.07v0Z"/><path class="cls-1" d="M27.49,44.73l.11,0A.16.16,0,0,0,27.49,44.73Z"/><path class="cls-1" d="M4.83,61.62l0,0S4.81,61.64,4.83,61.62Z"/><path class="cls-1" d="M.74,65.44l0-.07-.12-.1Z"/><path class="cls-1" d="M41.71,26.47h0C41.64,26.59,41.68,26.54,41.71,26.47Z"/><path class="cls-1" d="M49.5,10.85c.51,0-.43.68.29.53C49.67,11.33,50.06,10.67,49.5,10.85Z"/><path class="cls-1" d="M18.67,58.66c0-.06,0-.13,0-.19A.61.61,0,0,0,18.67,58.66Z"/><path class="cls-1" d="M49.78,11.38h0l.07,0Z"/><path class="cls-1" d="M48.19,19A.34.34,0,0,0,48,19S48.1,19,48.19,19Z"/><path class="cls-1" d="M42.93,24.19l.15-.11A.65.65,0,0,0,42.93,24.19Z"/><path class="cls-1" d="M50.57,16c.08-.06.14-.05.2-.18h-.05C50.72,15.86,50.69,15.92,50.57,16Z"/><path class="cls-1" d="M53.42,13.16h-.09l-.08.1Z"/><path class="cls-1" d="M11.61,51.56a.82.82,0,0,1-.31,0C11.49,51.62,11.2,52.14,11.61,51.56Z"/><path class="cls-1" d="M18.76,58.81a.16.16,0,0,1-.09-.15l0,.14S18.73,58.84,18.76,58.81Z"/><path class="cls-1" d="M49.12,14.29l.48-.43A3.79,3.79,0,0,0,49.12,14.29Z"/><path class="cls-1" d="M30.09,29.75l-.08.13A.19.19,0,0,0,30.09,29.75Z"/><path class="cls-1" d="M50.93,12.49a1,1,0,0,0,.39-.11.27.27,0,0,0,0-.1Z"/><path class="cls-1" d="M11.29,51.19h0Z"/><path class="cls-1" d="M9.41,55.34c.35-.49-.13-.44-.23-.67.33-.65.41-.12.71-.21.18-.42.1-.9.3-1.17.06,0,.12,0,.14.08,0-.57.81-1.16.84-1.82a.21.21,0,0,1,.12,0,.91.91,0,0,1-.46-.23c.16-.22.11-.54.37-.48-.1.13,0,.2,0,.31l.08-.29c.43,0-.13.38.07.53a5,5,0,0,1,.72-1.49c.33.13-.5.87.08.59l-.49.45c.73-.09-.27.3.47.27.59-.64.43-.88,1-1.51,0-.27-.26-.12-.3-.38.46-1.19,1.25-.27,1.44-1.25,0-.32-.32-.65.25-1l.17.41c.54-.64-.14-.71.6-1.25,0,.22-.3.6-.19.53.59-.26.07-.45.34-.8l.32.14c.51-.73.9-1.67,1.49-2.47,0,.11,0,.3.25.19A13.34,13.34,0,0,1,20.14,41l.07-.54c.07-.08.23-.07.2.06.38-.29-.13-.14-.07-.39s.36-.16.32,0a6.23,6.23,0,0,1,1.95-2.57l0,.19c.53-.43.05-1,.67-1.27l0,.13c1.06-1,2-2.37,3.07-2.9-.16-.45,1.12-.93.76-1.41a6.58,6.58,0,0,0,1.67-.86c.24-.2.07-.59.3-.91l.23.21.14-.6.46.06.2-.32c-.12.09-.32.12-.36,0,.3-.5,1.13-.84,1.25-.73l.38-.57.4-.56c.06.11-.07.29-.15.47.31-.72.32.14.6-.51C32,28,32,27.86,32,27.8a3.22,3.22,0,0,0,1.26-1l.07.23c.77-.64,1.45-1.53,2.3-2.27-.37.19-.55-.14-.32-.39l.32.16c0-.29-.34.13-.18-.34.34-.25.46.09.35.33l.31-.42c.09.05,0,.17.09.28,0-.29.88-.33.87-.79l.09.05c.84-.73,1.15-1.15,1.83-1.77-.17-.23.14-.42.21-.76a13,13,0,0,0,1.92-1.18c.35-.47,0-.29.07-.58.19.17.81-.35.6.05a20.33,20.33,0,0,0,1.78-1.73c-.17,0-.32,0-.31-.07s.47-.22.52-.1l0,.06c.88-1.13,3-1.29,3.56-2.38l0,.06s.19-.23.39-.44l.39-.43c.46-.26-.15.33.26.25.77-1,1.64-1,2.32-1.84,1,.17,2.3-1.55,3.46-1.69L54,11c.14-.29.33-.09.53-.16-.1-.1-.34,0-.24-.15,1.84-1.44,4.26-2.16,6.39-3.16A.64.64,0,0,0,61,7.12L59.35,4.69c-.06.37.2.7-.61,1l0-.46C57.68,6.7,56,7.63,55,9.06c0-.13,0-.2.09-.31-.44.07-1,.91-.88,1.06-.21.17-.17-.09-.36,0-.37.15-.46.86-.77.82-.05,0,0-.13.06-.19-.09.25-.83.75-.48.79-.57.35-.82.95-1.3,1.2,0,.46-.9.68-.67,1.07-.28-.35-1.08.54-1.21,1,0-.2-.35.16-.37-.09-.33.34-.57.71-.34.81-1,.24-.91,1.55-1.75,1.42-.78,1.19-1.56,2.24-2.33,3.24-.31-.34.91-1.05.53-1.33A12.19,12.19,0,0,1,43.45,21c-.25.19,0-.26,0-.39-.67,1-1.57,1.69-2.08,2.66,0,0,0-.15.06-.25-.13.17-.37.32-.2.44l.09-.19c.44-.06-.07,1,0,1.16-.21-.65-.8.69-1-.21-.06.13-.1.32,0,.39-.16.13-.26.13-.25-.13-.4.65-.06.58-.5,1.1-.07-.07,0-.2-.06-.32A1.78,1.78,0,0,1,39,26.46c0-.06-.13-.06,0-.19-.61.77-.67,1.62-1.49,2.34-.14-.52-.34.2-.67,0l-.28.52.29-.07c-.32.39-.4.91-.76,1.18l.11-.39-.53.8.44-.34c-.16.52.18.25-.31.72.05-.13.13.4-.87.47h0c0,.27.1.55-.2.79-.15,0-.17-.31-.27-.31.09.38-.6,1-.52,1.45,0-.13-.13-.25-.18-.25l.09.32c-.2.14-.25.14-.35,0-.46.54.52.1-.15.65,0-.07,0-.06,0-.2-.58.62-.85,1.4-1.39,2-.44,0,.32-.61-.09-.58a25.73,25.73,0,0,1-1.67,3l.15-.14c.34.42-.67.51-.78,1.11,0-.13-.14-.31-.12-.25a10.85,10.85,0,0,0-1.24,2.34l0-.19a14.13,14.13,0,0,0-1,1.28c0,.19-.13.4.13.38-1.46.79-1.14,2.55-2.38,3.3.08-.13.09-.37,0-.27l-.48,1c.24,0,.2,0,.47-.15a1.17,1.17,0,0,1-.17.74c.13-.5-.32-.19-.54-.07.08,0,.11.11.18.13-.65.28.35.32-.29.85l-.08-.1a2.82,2.82,0,0,1-.29.85c-.3,0,.05-.33-.13-.46-.21.39,0,1-.43,1.23,0-.2.16-.44.19-.64-.49.22-.45.31-.65.57l0,0-.49.59.17-.13c.34.82-.44,1.06-.38,1.94,0-.84-.17-.22-.41-.41-.17.13-.38.35-.42.24.06.43-.45.45-.34,1.06-.1,0-.17.34-.36.16-.13.46.2,0,.29.06,0,.78-1.08,1.38-1,2.52-.14.9.12,1.17,0,2-.23.22-.27-.32-.27-.32a1.83,1.83,0,0,0-.35,1.15c-.06-.11-.15,0-.29.06-.06.34.28.3,0,.72a1.41,1.41,0,0,1-.29-.44,5.46,5.46,0,0,0,.16,1.36c-.17.12-.25-.28-.35-.46,0,.54.18,1.38.5,1.47,0,0,0-.33,0-.33,0,.17-.22.13-.28,0-.26-.43.06-.64.15-.66l.07.31c.27-.18.25-.45.19-.8a2.42,2.42,0,0,1,0-1l.34.34-.18-.67c.14-.09.39-.11.37.18.31-.34,0-.4.29-.67,0,0,.06,0,.06,0v-.43c.06.1.3,0,.16.24.45-.61.09-1.21.48-1.36v.07c.23-1-.25-.2-.31-1l.89-.19L21,55.15c.05-.09.15-.27.25-.19,0-.44-.15,0-.24-.28.46-.35.46-1.33,1-1.22-.13-.26-.37.36-.28-.2.53.09.2-.6.62-.91.17.25-.15.57.27.27-.28-.45.5-.75.61-1.13-.31-.19.27-.81.49-1.44.08.1.79-1,1.21-1.41l0,0c-.26-.29.13-.79.3-1.22.18.13.21.25.16.51l.22-.37a.74.74,0,0,1,.08-.55l.18.24c.29-.49.34-1.15.88-1.67-.19-.17-.91.12-.64-.64.13,0,.35.15.29.35,0-.07,0-.26.15-.35l0,.39c.26-.23-.07-.25.09-.47.16.11.22-.09.34,0s-.19.15-.18.28a1.38,1.38,0,0,1,.67-.5.22.22,0,0,1-.12-.34c.3-.49.31,0,.57-.26,0-.19.28-.42,0-.59.09-.14.23-.09.33-.1.05-.32.73-1.18.28-1.07l-.06.05,0,0h0c.28-1,1.27-1.58,1.7-2.45l.08.06a8.68,8.68,0,0,0,.73-1.55c.1-.14.38-.22.43-.1a1.76,1.76,0,0,1,.63-.93c-.12.46.21,0-.16.44.4-.42.6-.43.74-1.08.08.32.51-.16.6-.43l-.38.22a3.52,3.52,0,0,1,.5-.68l.18.31c1-.69.7-2.1,1.77-2.4,0-.39-.51.41-.56,0,.35-.41,1.08-.55,1.18-.69.59-.47,0-.84.6-1.37-.15,0-.46-.12-.2-.64s.8-.22.66.11c-.07.11-.14.13-.17.1-.07.16-.17.38.06.29l-.05-.13c.26-.14.7-.73.75-.47.17-.39,0-.26-.28-.06.56-.43.68-.83,1.21-1.31-.12,0-.3,0-.22,0,.77-.72.11-.5.51-1.08.39-.2.24.38.57-.26.37-.25.3.13.27.32.23-.64.89-.83,1.15-1.08l-.14.32a1.82,1.82,0,0,1,.3-.45h-.31c.16-.13.27-.26.34-.19,0-.26-.4-.13-.3-.58.26-.13.42-.71.72-.57-.62.57.3.13-.11.71a1.07,1.07,0,0,1,.33-.38s0,.06,0,.12c.73-.43,0-.51.51-1.14.07.19.38.07.44-.05-.22.25-.33-.07-.23-.39.45-.31.3-.5.5-.7l-.26.2c-.06-.2.13-.38.33-.7.12.07-.15.32,0,.26,0-.52.85-.49,1.08-1.06.27-.12.27.2.48.08.26-.63.65-.35,1-1-.31,0-.29,0-.14-.46l-.62.94L45,21.7c-.23.25-.36.63-.53.75.08-.38.1-.32-.15-.33.57-.1.46-.82,1-1l.43.41c.72-.42.73-1.25,1.55-1.9l-.3.17c-.08-.26.41-.49.58-.8.12.16.32.05.51,0-.12-.09.53-.54.31-.88l.51-.15c.66-.52.26-1.07.88-1.6,0,.32.34.16.07.65.19-.19.38-.34.29-.44.2,0,.33-.72.64-.76,0-.14-.1-.32.12-.52.05,0,.07.07.07.07s.24-.43-.1-.4c1-.14,1.62-1.66,2.51-1.78.38-.45.85-1,1.23-1.36,0,.07.07.07,0,.13.66-.37-.06-.72.69-1.15.53-.06-.21.43.07.34.52.39.68-.75,1.35-.85l-.07.12c.47-.13.61-.89,1.16-1.33,0,0,0,.07.06.08A5.13,5.13,0,0,1,59,7.37c0,.33-.14.3.12.41.2-.23-.34-.25.07-.71.24,0,.65-.22.87-.05l-.42.39c.45.08.55-.49.81-.65l.07.14a2.06,2.06,0,0,0,.35-.44L64.64,0,59.91,5a2.73,2.73,0,0,1-1,.9l.14.06c-.27.59-.48,0-.8.52l-.33-.27a13.43,13.43,0,0,1-1.36,1.27,6,6,0,0,1,1-1.27c-.3.16-1,.58-1.06.84.1-.1.2-.27.35-.28A2.61,2.61,0,0,1,55.69,8c-.29-.74-1.6.75-2.33.49-.87.88-2.1,1.12-3.25,1.93.73.22-.33.24.08.71-.25.21-.35.28-.4.26l-1,.25c-.29,0,.18-.29.08-.38-.62.36-.39,0-.88.08.2.13,0,.4-.41.56l.63-.09c-.64.83-1,.06-1.65.89l.15-.34c-.37.37-1.56,1.09-1.68,1.8-.11,0-.31-.07-.15-.24C43.82,14.59,43,16,42,16.29l0-.17c-.16.17-.15.46-.46.52,0-.06,0-.18-.11-.12s-.31.59-.6.71l.1-.3c-1.06.6-1.18,1.48-1.89,2.19-.28-.34-1.1.14-1.52.38l0-.06a18.75,18.75,0,0,0-2.42,2.82,4.18,4.18,0,0,0-1.58,1,13.77,13.77,0,0,1-1.7,1.39c.2-.08.21.27.07.46s-.4.79-.64.47l.08-.07c-.44-.13-.82.37-1.18.7l.31.44c-1.47.32-2.15,2.55-3.14,2.55-.12.31-.39.58-.51.89l-.19-.21A9.67,9.67,0,0,0,25,31.49v-.3c-.42.42.08,1.11-.27,1.52l-.42-.17c-.7.76-1.69,1.27-2.09,2.29a.23.23,0,0,1,0-.3c-.33.36-1.45,1.23-.9,1.48-.29-.24-.73.78-1,1.31l-.15-.25a1.76,1.76,0,0,1-.33,1.22c-.13.09-.26,0-.07-.15-.45.3-.06.48-.59.85l0-.29c-.37.39-.26.42-.29.78s-.69.73-.94.63a.65.65,0,0,1-.21.71c-.1,0-.07-.15-.06-.22-.71.57-.59,1.23-1.19,1.53a.2.2,0,0,0-.19,0,9.9,9.9,0,0,1,.81-.92c-.2-.16-.6.25-.58-.33a3.6,3.6,0,0,1-.76,1.71h-.12v-.06a.6.6,0,0,0-.19.3,1.74,1.74,0,0,0-.35.31c-.21-.08-.49.45-.68.67.24.16,0,.42.37.29,0,0,0-.06.11-.22a.46.46,0,0,0,.05-.11v0l.42-.57a.72.72,0,0,1-.39.68c.05.23.1.47.11.59-.55.06-1.18.53-1.43.46-.41.78-1.18,1.69-1.09,2.44-.1.24-.29.14-.41.16,0-.15.15-.28.14-.38-.19.47-.83,1.21-.61,1.52-.5.4-.06-.48-.52.24l0-.16c-1.47,1-.88,2.74-2.56,3.83.11-.08.17-.12.23-.11C7.35,54,6.55,56.23,5,57.69c-.42.44-.26.62-.31,1l-.32-.06-.06.71c-.27.87-1.48.86-1.67,2.07h.25c-.25.32-.58,1.14-.74,1,0,.05.11.23-.07.3l-.14-.07-.3,1c-.51.58-.47-.44-1.09.49-.17.38-.24,1.24-.07,1.16S.76,64.93.9,65l-.13.36c.36.3.61.8,1.38.19l.11-.7.3-.05-.28.46c.35-.15.29-.41.3-.66a.44.44,0,0,0,.36-.09l0-.77c.19,0,.15.43.47.13,0-.36-.5,0-.35-.47.34-.15.44,0,.48-.38.13,0,.15.13.12.28.05-.35.41-.75.29-1,.39-.13.53-1,.88-.69A1.86,1.86,0,0,1,5,60.67c.14.74.64-.9,1-.47-.17-.59.63-1.32.8-2.05,0,.05,0,.16,0,.2a2.32,2.32,0,0,1,.65-.49c-.29-.26,0-.83,0-1.24.59-.19.21.5.6.58-.28-.16.23-.87-.09-.89.41-.17.28-.2.66-.17-.37-.33.13-.33.06-.76.51-.3.46.15.67-.42C9.57,54.81,9.41,55.34,9.41,55.34Zm7.78-11.81h0l-.17.24Zm.75-.92c-.1.1-.22.24-.34.39a.13.13,0,0,1-.07-.22C17.54,42.88,17.77,42.7,17.94,42.62Zm-3.11.74c.09-.17.17-.19.23-.18l-.18.28v0A.37.37,0,0,1,14.83,43.36Z"/><path class="cls-1" d="M14.91,43.86a.38.38,0,0,1,0,.07l.12-.05,0-.11Z"/><path class="cls-1" d="M28.59,42.37l0,0-.06,0Z"/><polygon class="cls-1" points="29.26 30.79 29.21 30.74 29.18 30.85 29.26 30.79"/><path class="cls-1" d="M24.24,47.4a.16.16,0,0,0-.11,0S24.2,47.42,24.24,47.4Z"/><path class="cls-1" d="M22.74,49.82l-.29.3A2.59,2.59,0,0,0,22.74,49.82Z"/><path class="cls-1" d="M21.56,51.7a.38.38,0,0,0,.09.09h0Z"/><path class="cls-1" d="M41.41,23.07l0-.07C41.54,22.81,41.47,22.92,41.41,23.07Z"/><path class="cls-1" d="M35.34,31.5a2.18,2.18,0,0,1,.1-.34C35.31,31.28,35.22,31.39,35.34,31.5Z"/><polygon class="cls-1" points="49.06 14.33 49.07 14.34 49.12 14.29 49.06 14.33"/><path class="cls-1" d="M35.74,30.77a.83.83,0,0,0-.3.38A1.27,1.27,0,0,0,35.74,30.77Z"/><path class="cls-1" d="M18.36,61v.13h0Z"/><path class="cls-1" d="M18.41,61.15l.05.13C18.45,61.22,18.44,61.17,18.41,61.15Z"/><path class="cls-1" d="M18.59,61.56l-.13-.28C18.48,61.39,18.5,61.52,18.59,61.56Z"/><path class="cls-1" d="M19,57.87l-.09-.06A.17.17,0,0,0,19,57.87Z"/><path class="cls-1" d="M19.22,57c-.09.2-.38.44-.41.75l.07.05C18.78,57.62,19.32,57.25,19.22,57Z"/><path class="cls-1" d="M21.77,54.06l-.37.63c.15-.07.35-.16.24.15C22.31,54.14,21.34,54.91,21.77,54.06Z"/><path class="cls-1" d="M22.91,52.12c-.14.37.14.07.19.12C23.12,52,23.13,51.9,22.91,52.12Z"/><path class="cls-1" d="M31.67,38.26l.19.18C32,38.17,31.77,38.38,31.67,38.26Z"/><polygon class="cls-1" points="32.43 34.93 32.13 35.08 32.23 35.33 32.43 34.93"/><polygon class="cls-1" points="35 34.52 34.95 34.65 35.18 34.19 35 34.52"/><path class="cls-1" d="M53.08,13.83l-.28-.16C52.69,13.86,52.91,14.14,53.08,13.83Z"/><path class="cls-1" d="M58.94,5.73A.55.55,0,0,0,58.3,6C58.54,5.86,58.84,5.84,58.94,5.73Z"/><polygon class="cls-1" points="29.72 26.75 29.82 26.5 29.55 26.88 29.72 26.75"/><path class="cls-1" d="M38.56,43.23c0,.09.15.24.19.16l-.14-.3Z"/><path class="cls-1" d="M39.33,43.43a1.11,1.11,0,0,0-.33-.68c.12.31,0,.21.17.58,0,.08-.17,0-.23-.11,0,.09-.14,0-.05.2s.34.09.33-.16A.46.46,0,0,1,39.33,43.43Z"/><path class="cls-1" d="M42.58,37.55l0,0A.06.06,0,0,0,42.58,37.55Z"/><path class="cls-1" d="M37.52,38.34a.07.07,0,0,0,0-.09S37.5,38.32,37.52,38.34Z"/><path class="cls-1" d="M36.62,38.27h.05S36.62,38.25,36.62,38.27Z"/><path class="cls-1" d="M42.58,37.55l-.09-.13C42.42,37.51,42.53,37.51,42.58,37.55Z"/><path class="cls-1" d="M39.66,42.17a.21.21,0,0,0,0,.11l0-.07Z"/><path class="cls-1" d="M44,39.47v0l.13,0Z"/><path class="cls-1" d="M42.88,41.34s-.17-.22-.25-.31c.07.09.1.15.09.19Z"/><path class="cls-1" d="M40.66,42.82v0Z"/><path class="cls-1" d="M43.78,38l.07-.07Z"/><path class="cls-1" d="M2.15,55.91v0S2.14,55.91,2.15,55.91Z"/><polygon class="cls-1" points="0.06 54.88 0.08 54.86 0.06 54.7 0.06 54.88"/><path class="cls-1" d="M35.07,38.44h0S35.08,38.41,35.07,38.44Z"/><path class="cls-1" d="M22.74,44.58c.26.15-.07.4.27.54C22.94,45,23,44.63,22.74,44.58Z"/><path class="cls-1" d="M39.72,42.18l0,0S39.72,42.16,39.72,42.18Z"/><path class="cls-1" d="M23,45.12h0Z"/><path class="cls-1" d="M31.92,39.93A.5.5,0,0,0,32,40,.33.33,0,0,0,31.92,39.93Z"/><path class="cls-1" d="M34.45,39.3h0Z"/><path class="cls-1" d="M30.86,40.85s-.07,0-.09,0l0,0S30.81,40.83,30.86,40.85Z"/><polygon class="cls-1" points="29.61 41.44 29.65 41.48 29.69 41.45 29.61 41.44"/><path class="cls-1" d="M6.3,54.74a1.29,1.29,0,0,1-.14-.22C6.24,54.7,6.07,54.83,6.3,54.74Z"/><path class="cls-1" d="M39.76,42.3c0-.06-.05-.09,0-.12l0,0A.27.27,0,0,0,39.76,42.3Z"/><path class="cls-1" d="M31.74,42.88l-.21.05A.54.54,0,0,0,31.74,42.88Z"/><path class="cls-1" d="M15.59,50.92l0,.05S15.59,51,15.59,50.92Z"/><path class="cls-1" d="M31,43.24a.47.47,0,0,0-.19-.12.32.32,0,0,0,0,.08Z"/><path class="cls-1" d="M6.16,54.51h0Z"/><path class="cls-1" d="M4.92,55.56c.21,0,0-.37,0-.59.22-.16.19.23.32.39.13-.13.16-.49.28-.51s.05.07,0,.15c.08-.32.48-.16.56-.57l.05.08A2.44,2.44,0,0,1,6,54c.09,0,.1-.28.2-.06-.06,0,0,.11,0,.19L6.21,54c.19.3-.09.16,0,.4.15-.17.28-.51.45-.46.13.31-.3.22,0,.44l-.26-.05c.33.46-.14,0,.18.51.32,0,.27-.27.59-.27,0-.2-.11-.26-.1-.46.3-.45.59.71.75.18,0-.24-.1-.66.18-.51l.05.39c.29-.06,0-.57.35-.43,0,.16-.18.19-.12.22.29.22.06-.25.2-.3l.14.31c.27-.16.51-.52.81-.7,0,.1,0,.22.11.29a1.8,1.8,0,0,1,1.36-.26l0-.33s.12.1.1.16c.19,0-.06-.17,0-.31s.18.11.16.21c.17-.35.54-.82.95-.66l0,.1c.27,0,0-.66.31-.5l0,.06c.52-.09.93-.55,1.47-.32-.11-.42.54,0,.32-.6.39.14.36.27.81.27.11,0,0-.4.08-.52l.14.28,0-.37.25.29.08-.13c-.05,0-.16-.08-.19-.16s.53,0,.61.12l.31-.44c0,.12,0,.19,0,.29.08-.4.19.27.26-.09-.06,0-.07-.17-.09-.23A.46.46,0,0,0,17,50.3l.06.21a9.19,9.19,0,0,0,1-.6c-.17,0-.31-.37-.22-.45l.19.27c0-.21-.16-.06-.14-.34.15,0,.26.28.23.42l.11-.18c.05.08,0,.15.09.26,0-.21.42.15.36-.21l.05.08a8.37,8.37,0,0,0,.72-.52c-.13-.25,0-.25,0-.5.25,0,.58,0,.82-.11s-.06-.24-.06-.43c.13.22.37.07.33.3a2,2,0,0,0,.63-.63c-.09-.07-.16-.09-.17-.18s.21,0,.25.13v0c.24-.56,1.32.14,1.4-.51v0l.22-.43c.18,0,0,.22.19.3.17-.58.62-.26.79-.68.59.54.82-.5,1.37-.24l-.1-.15c0-.2.15,0,.23,0-.07-.12-.17-.09-.16-.21.6-.57,1.57-.54,2.37-.77.29-.09-.27-.9.26-.69l.06.34c.35-.63,1.09-.55,1.47-1.11,0,.08,0,.17,0,.2.22.16.41-.19.33-.37.09,0,.1.15.19.21s.14-.41.31-.23c0,0,0,.09,0,.11,0-.14.35-.14.16-.35.25,0,.32-.3.55-.23,0-.33.4,0,.25-.44.18.42.5.17.54-.08,0,.14.17.08.2.27a.26.26,0,0,0,.12-.41c.49.37.35-.64.79-.08a5.07,5.07,0,0,1,1-1c.16.42-.42.22-.21.65.29-.32.36-.77.77-.82.12,0,0,.2,0,.29.3-.32.73-.25,1-.62a.21.21,0,0,1,0,.14c.06,0,.17,0,.09-.19l0,.08c-.21-.23,0-.68,0-.84.1.59.38,0,.47.77a.34.34,0,0,0,0-.29c.08,0,.13.08.12.25.19-.2,0-.36.25-.44,0,.09,0,.14,0,.26,0-.22.08-.44.29-.42,0,.06.06.13,0,.14.3-.14.36-.67.76-.62,0,.44.16.09.3.44l.15-.17-.13-.15c.16-.05.22-.36.4-.29l-.07.19.28-.17-.22-.07c.1-.24-.34-.44-.09-.42,0,.05.14-.05.14.13h0c0-.14.27-.28.42-.23s.19.4.23.47c0-.32.4-.19.41-.54a.74.74,0,0,0,.09.31V39c.1.06.13.09.16.24.24,0-.2-.43.13-.32,0,0,0,.06,0,.11.3,0,.49-.31.77-.26.17.34-.19.15,0,.43.32-.16.67-.67,1-.65l-.06,0c0-.26,0-.22.12-.13s.14.22.2.08a.73.73,0,0,0,0,.25c.13.07.28-.18.67-.32l-.11.14c0,.13.2.11.23.21.15-.12.18-.07.34-.27-.25.5,0,.41.24.51s.28.24-.12.42c0,0-.14,0-.15,0a.69.69,0,0,1,.1.19,1.13,1.13,0,0,0,.43-.11c.16,0,.26.11.22.19-.12-.14-.45,0-.62,0l.26,0c-.55.09.53.08.09.25l-.13,0c0,.08.14.2,0,.28-.29-.07-.07-.12-.29-.2,0,.08.33.41,0,.38,0-.08,0-.14,0-.22-.36,0-.29,0-.38,0h0l-.22,0,.09,0c.43.57-.14.36,0,.84-.15-.47-.16-.2-.37-.42-.1,0-.24,0-.28-.08.1.25-.27,0-.13.37-.07-.06-.09.08-.25-.11,0,.16.15.09.22.19.07.41-.67.09-.6.65-.09.33.09.62,0,.92-.17-.06-.17-.32-.17-.32-.21,0-.27.08-.31.26,0-.08-.1-.12-.2-.18s.17.32,0,.3a2.13,2.13,0,0,1-.16-.37c0,.15,0,.37-.09.53-.13-.11-.09-.25-.12-.37a.65.65,0,0,0-.09.6l.14,0s-.16-.17-.16-.23c0-.25.21,0,.27,0l0,.11c.43.39.26-.32.43-.41l.2.37-.06-.4c.1.06.27.21.24.33.24.06,0-.19.25-.1a.07.07,0,0,1,0,.06l0-.19c0,.08.21.21.1.22.36,0,.1-.51.39-.34v0c.17-.34-.18-.25-.23-.69l.65.42L41.41,42a.12.12,0,0,1,.18,0c0-.25-.11-.08-.19-.28.32.08.25-.43.62-.12-.12-.21-.25,0-.23-.25.41.33.08-.22.37-.17.16.22,0,.23.24.28-.27-.38.29-.16.32-.33-.27-.24.09-.33.17-.62.09.08.51-.31.76-.55l.06,0c-.35-.12-.16-.33-.19-.51.23,0,.31,0,.38.14l.05-.19a.24.24,0,0,1-.18-.2l.27,0c0-.27-.26-.44-.17-.8-.24.1-.59.43-.92.31l.31-.14c.08,0,.15,0,.19,0s-.08,0-.1-.06a0,0,0,0,1,0,0h.25c0-.06,0-.08,0-.08s-.17.05-.18,0c.18-.09.09-.13.23-.19s0,.12.06.13a.69.69,0,0,1,.1-.45c-.09.07-.23.14-.3.08s.14-.2.12-.38c-.15,0-.17-.16-.4,0-.06,0,0-.15.06-.22-.2,0-.59-.23-.64.09l0,0h0a.83.83,0,0,1-.61-.06.78.78,0,0,0-.6-.07v-.1c-.26.14-.57.15-.68.4-.06,0-.18-.14-.18-.26-.13.11-.12.23-.37.13.1-.21-.09-.13.12-.17-.21,0-.3-.17-.43.15,0-.26-.23-.27-.3-.17l.18.14a.5.5,0,0,1-.28.07l0-.33c-.51-.27-.52.86-1,.3,0,.25.26.1.25.38-.19,0-.52-.39-.58-.38-.31-.1-.09.53-.38.5.07.1.2.39,0,.56-.19,0-.37-.4-.29-.53s.07,0,.08,0,.1-.14,0-.23v.12c-.13-.08-.37,0-.37-.19-.1.15,0,.2.12.23-.28-.08-.36.12-.63.09.06,0,.14.17.1.18-.39,0-.08.27-.29.4-.19-.12-.1-.42-.28-.2-.18-.07-.14-.29-.11-.4-.14.29-.45,0-.59,0l.08-.13a.26.26,0,0,1-.16.11l.15.2c-.08,0-.14,0-.17-.09,0,.17.19.35.13.6-.13-.08-.22.21-.36-.07.31,0-.14-.29.07-.42a.15.15,0,0,1-.17.05.08.08,0,0,1,0-.09c-.36-.16,0,.38-.26.48,0-.18-.18-.29-.22-.23s.16.25.11.42c-.22-.06-.15.17-.25.19l.13,0c0,.18-.06.19-.16.29-.06-.12.07-.13,0-.17,0,.34-.42-.18-.53.09-.13-.08-.13-.31-.24-.35-.12.3-.32-.13-.47.13.16.19.14.14.08.41l.3-.3-.1.41c.11,0,.17-.23.25-.22,0,.22,0,.17.08.33-.29-.27-.21.31-.48.16l-.22-.55c-.36-.13-.34.46-.73.48l.15,0c0,.24-.19.12-.26.26-.07-.19-.17-.22-.26-.31.06.13-.25.1-.12.47l-.25-.17c-.31,0-.07.65-.35.7,0-.23-.19-.3-.08-.52-.09,0-.18,0-.12.16-.1-.09-.12.35-.28.21,0,.09.08.29,0,.32a.25.25,0,0,1,0-.09c0,.09-.09.19.08.35-.53-.44-.71.38-1.16,0a3,3,0,0,1-.5.41c0-.06,0-.09,0-.09-.31-.05.11.58-.24.52-.27-.22.06-.22-.07-.29-.32-.56-.27.23-.62,0l0-.06c-.23-.13-.22.38-.46.45a.27.27,0,0,0,0-.09,1.21,1.21,0,0,1-.39.8c-.05-.26,0-.17-.12-.38-.08.08.22.36.06.52-.12-.09-.31-.13-.46-.37l.17-.1c-.25-.27-.22.13-.34.12l-.06-.14c-.25.18-.07.54-.37.66l.08.09c0,.43-.23-.13-.26.21l-.23-.33a2.75,2.75,0,0,1-.34.69,2.1,2.1,0,0,1,.17-.78c-.1.05-.34.21-.3.41,0-.06,0-.17.1-.14,0,.34-.08.56-.28.66-.32-.7-.62.11-1-.33-.23.44-.77.28-1.17.54.43.45-.11.08.2.61-.08.09-.12.1-.15.07L22.54,45c-.15-.12,0-.17,0-.28-.24.07-.21-.18-.43-.25.13.18.07.32-.09.31l.3.16c-.14.45-.5-.31-.65.13V44.8c-.1.18-.57.3-.49.82-.06,0-.18-.18-.13-.25-.4.13-.57.9-1,.79L20,46c0,.07,0,.31-.14.22s0-.15-.08-.14-.06.33-.19.3V46.2c-.45,0-.36.65-.61.9a.68.68,0,0,0-.73-.36l0-.06c-.44.17-.54.7-.85,1.05-.46-.3-.91.24-1.42.2.1,0,.15.31.1.39s-.11.4-.28,0h0c-.25-.32-.39-.13-.54-.06l.21.48c-.72-.49-.89.74-1.4.23,0,.16-.15.22-.19.38l-.12-.26a1.44,1.44,0,0,0-.72.3l0-.21c-.19.07.12.85,0,.94l-.23-.36c-.31.15-.79-.05-.94.44,0-.06-.06-.17,0-.21-.15.06-.69,0-.4.5-.15-.34-.34.11-.45.34l-.08-.27c0,.39,0,.48-.14.66-.06,0-.13-.19,0-.15-.22-.06,0,.3-.27.25v-.2c-.17.05-.12.13-.14.36s-.35.06-.46-.17c0,.15,0,.38-.11.35a.24.24,0,0,1,0-.19c-.35-.07-.3.46-.59.28A.35.35,0,0,0,9,51.64a1.15,1.15,0,0,1,.4-.11c-.09-.24-.29-.21-.28-.6-.07.23-.17.72-.38.68l-.05-.07v0s-.08,0-.1.08a.3.3,0,0,0-.17,0c-.09-.19-.24,0-.34,0,.1.26,0,.26.16.44,0,0,0,0,.06-.07s0,0,0,0v0l.22-.1c0,.16-.05.3-.21.19,0,.19,0,.38,0,.47-.26-.32-.57-.43-.68-.64-.22.24-.61.31-.62.87-.06.09-.14-.11-.2-.18s.09-.08.09-.15c-.11.18-.45.2-.37.57-.25-.09,0-.36-.25-.21V52.6c-.71-.4-.6,1.21-1.42.64a.21.21,0,0,1,.11.11c-.78-.15-1.36.67-2.17.33-.22-.06-.19.19-.27.38l-.11-.29-.13.38c-.25.3-.65-.64-.93-.1l.08.19c-.14,0-.4.19-.42,0,0,0,0,.22-.08.12l0-.16-.28.33c-.27-.07-.06-.63-.43-.59-.13.08-.32.53-.26.62s.16.07.18.23l-.12.1c0,.46,0,1,.38,1.22l.18-.32L.75,56,.56,56c.14.19.18,0,.24-.15a.44.44,0,0,0,.13.23l.15-.48c.06.17,0,.37.13.45.07-.22-.17-.38,0-.55.14.19.14.36.24.16a.28.28,0,0,1,0,.26c.09-.16.29-.11.3-.37.16.24.36-.14.44.3,0-.11.13-.38.23-.41-.08.55.39,0,.46.52,0-.48.46-.31.64-.63,0,0,0,.12,0,.1.15,0,.22.13.33.2-.07-.39.12-.53.17-.79.26.32,0,.47.15.81-.08-.31.22-.38.09-.62.18.19.14.08.28.38-.1-.48.1-.11.13-.43.25.19.17.43.33.24C5.06,55.34,4.92,55.56,4.92,55.56Zm4.48-2.35h0l-.09.05Zm.38-.15-.17.05c0-.09-.07-.18,0-.19S9.69,53,9.78,53.05Zm-1.5-1.51c0-.06.08,0,.11,0l-.09.07v0A.78.78,0,0,1,8.28,51.54Z"/><path class="cls-1" d="M8.3,51.93s0,0,0,0l.06,0v-.09Z"/><path class="cls-1" d="M42.62,37.61h0a.07.07,0,0,1,0,0Z"/><polygon class="cls-1" points="15.23 51.25 15.2 51.18 15.19 51.26 15.23 51.25"/><path class="cls-1" d="M42.47,39.68h0Z"/><path class="cls-1" d="M42.05,40.17h-.14A.34.34,0,0,0,42.05,40.17Z"/><path class="cls-1" d="M41.52,40.56l.08.09h0Z"/><path class="cls-1" d="M35.19,41l0,0C35.13,41.13,35.16,41.09,35.19,41Z"/><path class="cls-1" d="M38.25,39.22a.77.77,0,0,1-.07.16C38.25,39.38,38.3,39.37,38.25,39.22Z"/><polygon class="cls-1" points="31.77 42.88 31.77 42.88 31.74 42.88 31.77 42.88"/><path class="cls-1" d="M38,39.43a.11.11,0,0,0,.16,0C38.13,39.38,38.06,39.37,38,39.43Z"/><path class="cls-1" d="M39.15,42.55h0l0,0Z"/><path class="cls-1" d="M39.14,42.6v0S39.15,42.62,39.14,42.6Z"/><path class="cls-1" d="M39.1,42.75l0-.1S39.07,42.68,39.1,42.75Z"/><path class="cls-1" d="M40,42.06,39.91,42Z"/><path class="cls-1" d="M40.17,41.84c-.07,0-.27-.05-.3.06l0,.07C39.84,41.83,40.23,42,40.17,41.84Z"/><path class="cls-1" d="M41.94,41.91l-.24.12c.11,0,.25.11.19.21C42.34,42.24,41.66,42.12,41.94,41.91Z"/><path class="cls-1" d="M42.6,41.44c-.06.14.12.11.16.15C42.75,41.46,42.75,41.42,42.6,41.44Z"/><path class="cls-1" d="M40.47,37.47l-.05-.25C40.33,37.28,40.45,37.32,40.47,37.47Z"/><polygon class="cls-1" points="39.78 39.05 39.92 39.17 39.9 38.93 39.78 39.05"/><polygon class="cls-1" points="38.66 37.47 38.69 37.42 38.55 37.56 38.66 37.47"/><path class="cls-1" d="M29.72,41.11l.16.27C29.92,41.3,29.78,41,29.72,41.11Z"/><path class="cls-1" d="M26.18,43.25c-.11-.12-.26-.16-.25,0C26,43.24,26.16,43.31,26.18,43.25Z"/><polygon class="cls-1" points="15.1 48.51 15.13 48.38 15.03 48.52 15.1 48.51"/><path class="cls-1" d="M99.11,39.88c-.16,0-.14.25.25.32l.36-.24Z"/><path class="cls-1" d="M99.33,41.2c-.43.24-.9.62-.55.86.39-.4.53-.29.94-.75.38-.11.7,0,.65.11a.27.27,0,0,1,.12,0l1.83-.42-1.8-.42c-.19,0-.5-.2-.7-.09a2,2,0,0,0,.62.38L101,41l-.56.05a2.93,2.93,0,0,0-1.1.35C99.18,41.37,99.31,41.26,99.33,41.2Z"/><path class="cls-1" d="M65.63,52.2l.23-.1A1,1,0,0,0,65.63,52.2Z"/><path class="cls-1" d="M52,61.51l0,0c.08,0,.12,0,.14,0l-.11,0S52,61.49,52,61.51Z"/><path class="cls-1" d="M52.93,58.71l-.11.21A.38.38,0,0,0,52.93,58.71Z"/><path class="cls-1" d="M65.63,52.2l-.59.26C65.06,52.57,65.36,52.35,65.63,52.2Z"/><path class="cls-1" d="M94.29,43a1.34,1.34,0,0,0,.32-.16l-.31.1A.3.3,0,0,1,94.29,43Z"/><path class="cls-1" d="M73.9,47.49a.59.59,0,0,0,0,.15l0,0,.06.05L74,47.62A.43.43,0,0,1,73.9,47.49Z"/><path class="cls-1" d="M80,46.39c-.17.07-.1.35-.11.49a.62.62,0,0,1,.27-.35A.31.31,0,0,0,80,46.39Z"/><path class="cls-1" d="M92.27,42.34l.21-.09Z"/><path class="cls-1" d="M69.43,49.33a.2.2,0,0,0-.12,0A.14.14,0,0,0,69.43,49.33Z"/><path class="cls-1" d="M23.38,55.38l0,0C23.43,55.35,23.42,55.33,23.38,55.38Z"/><path class="cls-1" d="M26.75,49.65l.07-.11a.68.68,0,0,0-.09-.13A1,1,0,0,0,26.75,49.65Z"/><path class="cls-1" d="M56.2,52l0,0C56.13,52.21,56.17,52.11,56.2,52Z"/><path class="cls-1" d="M88,6.51c.64-.51-.43,1.23.45.41C88.35,7,88.72,5.8,88,6.51Z"/><path class="cls-1" d="M94.08,43l-.32.08A1.78,1.78,0,0,0,94.08,43Z"/><path class="cls-1" d="M88.5,6.92h0l.09-.09Z"/><path class="cls-1" d="M63.34,36.42a.48.48,0,0,0-.19.1S63.23,36.51,63.34,36.42Z"/><path class="cls-1" d="M57.45,47.76l.16-.27A1.87,1.87,0,0,0,57.45,47.76Z"/><path class="cls-1" d="M66.15,30.42a1.16,1.16,0,0,0,.26-.39l-.07,0A.59.59,0,0,1,66.15,30.42Z"/><path class="cls-1" d="M69.75,24.55l-.12.08-.1.19Z"/><path class="cls-1" d="M33.11,51.41a1.09,1.09,0,0,1-.4,0C32.92,51.51,32.22,52.2,33.11,51.41Z"/><path class="cls-1" d="M94.25,42.88a.25.25,0,0,1-.17.16L94.3,43S94.3,42.89,94.25,42.88Z"/><path class="cls-1" d="M64.37,29.07l.6-.94C64.8,28.39,64.58,28.73,64.37,29.07Z"/><path class="cls-1" d="M59.86,43.65l-.18.19A.53.53,0,0,0,59.86,43.65Z"/><path class="cls-1" d="M66.65,25.29a2.27,2.27,0,0,0,.5-.42.44.44,0,0,0,0-.15Z"/><path class="cls-1" d="M32.71,51.19h0Z"/><path class="cls-1" d="M28,56.82c.76-.73.1-.61.11-.91.82-1,.6-.21,1-.38a17.55,17.55,0,0,1,1.1-1.66c.07,0,.17,0,.13.1.39-.78,1.74-1.66,2.22-2.54a.27.27,0,0,1,.15,0,.59.59,0,0,1-.44-.29c.34-.31.52-.73.81-.65-.23.17-.18.26-.24.4l.31-.38c.56,0-.44.5-.28.7a9.54,9.54,0,0,1,2-1.89c.3.18-1.3,1.06-.35.75l-.48.27c-.24.13-.48.28-.48.28,1-.1-.54.39.41.36a21.57,21.57,0,0,1,2.44-1.74c.18-.31-.23-.19,0-.51.49-.43.66-.36.74-.22s0,.41,0,.4.08-.06.23-.15a1.75,1.75,0,0,1,.65-.38c.19,0,.28.14,0,.48a2.27,2.27,0,0,0-.52.13c-.14.32.61.1,0,.71-.06-.21.09-.42,0-.37-.24.12-.19.14-.14.23s.08.31-.09.62l-.37,0c-.71,1.37-1.33,3-2.12,4.5,0-.13,0-.44-.28-.14l-.15.31-2.49,5.24,4.19-3.8a42.17,42.17,0,0,1,5.12-3.77l.44-.67L39.9,50.56v.1c0,.25-.28.45-.27.15-.39,1.15.14.1.12.65s-.38.84-.36.43c-.07.51-.16,1.1-.27,1.71l-.09.46,0,.23,0,.12s0,.09,0,.08c.37.06.71.1,1,.13a5.7,5.7,0,0,0,2.06-.19c.67-.17,1.44-.49,1.73-.55l-.24.21c1.15-.43.94-1.14,2.06-1.39l-.16.14c2.36-1.07,4.66-2.77,6.55-3.47.08-.56,2.24-1.26,2-1.85a13,13,0,0,0,2.88-1.36c.47-.31.44-.79.94-1.26l.2.23.53-.83.62,0,.45-.47c-.21.15-.51.24-.53.15a4.67,4.67,0,0,1,2.14-1.3l.81-.88c.41-.43.8-.88.8-.88s-.22.43-.41.69c.73-1.08.39.09,1.06-.91-.16.05-.06-.19-.08-.26a9,9,0,0,0,2.17-1.88v.28c1.31-1.18,2.59-2.67,3.94-4.11-.56.45-.71.07-.34-.37l.4.06c.11-.41-.5.36-.16-.37.53-.51.61-.11.4.27l.53-.73c.11,0,0,.22.05.34.1-.4,1.28-.93,1.38-1.55l.11,0c1.32-1.47,1.81-2.23,2.84-3.47-.19-.2.26-.64.38-1.16a31.42,31.42,0,0,0,2.67-2.86c.5-.87,0-.38.13-.83.25.1,1.1-1,.79-.34a35.88,35.88,0,0,0,2.39-3.61c-.22.13-.42.31-.41.15.2-.34.61-.65.68-.53l0,.1c1.11-2.16,3.85-4.09,4.5-6l0,.1.89-1.8c.55-.73-.15.56.36.09.85-2,1.95-2.78,2.68-4.41a2.27,2.27,0,0,0,.51-.39l.25-.27.13-.15.19-.26c.56-.79,1.15-1.72,1.73-2.65l.22-.35c0-.1.06-.18.09-.26L93.09,3c.11-.34.22-.68.35-1l.19-.5,0-.12c0-.05-.07,0-.1,0l-.28,0a5.94,5.94,0,0,1-.92-.2l0,.18c-.77.14-.63-.14-1.07-.2,0,.14.53.19.08.27a8.38,8.38,0,0,0-2.08.37A11.5,11.5,0,0,0,87,2.81a26.37,26.37,0,0,0-2.73,1.9l-2.53,2c-.84.67-1.61,1.39-2.4,2.1-1.13,1.05,0,1.24-1.59,2.37l.13-.63c-.9,1.29-2,2.42-3,3.65-.51.6-1,1.2-1.5,1.81a22,22,0,0,0-1.29,1.91c0-.19,0-.25.15-.49-.58.37-1.44,1.88-1.28,2-.29.37-.21,0-.45.17-.48.45-.67,1.5-1.06,1.64-.06,0,0-.19.09-.3-.14.41-1.13,1.58-.68,1.41-.75.86-1.07,1.89-1.7,2.55-.06.66-1.17,1.55-.88,2-.34-.31-1.32,1.52-1.51,2.24,0-.27-.44.46-.46.13-.41.71-.69,1.41-.42,1.4-1.19,1.06-1.1,2.84-2.08,3.26l-1.34,3.25c-.42,1.05-.85,2.07-1.28,3.06-.37-.27,1-2.17.56-2.3a39.34,39.34,0,0,1-1.88,5c-.28.45,0-.35,0-.55-.72,1.93-1.71,3.59-2.23,5.36,0,0,0-.22,0-.4-.14.33-.41.74-.2.78l.09-.34c.5-.4,0,1.56.11,1.68-.29-.8-.86,1.59-1.15.4-.06.23-.09.54.06.55-.18.31-.3.38-.3,0-.41,1.23,0,.89-.5,2-.09,0,0-.27-.09-.43a4.86,4.86,0,0,1-.58,2.11c0-.08-.15,0,0-.27-.64,1.57-.66,2.85-1.55,4.49-.18-.67-.38.53-.76.47l-.29,1s.33-.34.33-.33a4.31,4.31,0,0,0-.34,1.54,3.22,3.22,0,0,0,.29,1.45,1.65,1.65,0,0,1-.25-.34,2.13,2.13,0,0,1-.17-.39A1.92,1.92,0,0,0,51,62.74a1.83,1.83,0,0,0,.72.35,1.77,1.77,0,0,1-.65-.44,2.1,2.1,0,0,1-.24-.34.73.73,0,0,0,.35.21c.18,0,.18-.07.25-.09s.16.09.65.2c-.14,0,.1.06.43,0s.76-.13,1.06-.16h0a5.43,5.43,0,0,1,1.29-1c.21,0,.12.42.25.42.19-.49,1.66-1.26,1.89-1.87-.1.17,0,.33.08.33l.13-.42c.37-.19.44-.2.49,0,1-.73-.59-.12.66-.88-.08.09,0,.08-.17.26,1.21-.85,2-2,3.08-2.83.55,0-.78.89-.23.8,1.37-1.42,2.49-3.22,3.71-4.64l-.25.25c-.13-.28.17-.52.54-.83l.9-.73-1.33.11a1.67,1.67,0,0,0-1.36.85c.14-.24,0-.48,0-.38a2.66,2.66,0,0,0-.73,2.51l.24,1.07.78-.62,1.94-1.55-.13.24c.7-.31,1.7-1,2.41-1.41.13-.25.53-.48.18-.49a8.09,8.09,0,0,0,2.85-1.62c.41-.33.82-.67,1.23-1,.23-.17.37-.27.53-.36a2.42,2.42,0,0,1,.47-.23.6.6,0,0,1,.31,0c-.15.1-.34.37-.24.3l.48-.38c.12-.08,0,0,0,0a.3.3,0,0,0-.08.13.38.38,0,0,0,0,.15,2.83,2.83,0,0,1,.36-.88c0-.06-.12.07-.07.33a1.9,1.9,0,0,0,.14.41c-.19-.32-.19-.19-.23,0a2.16,2.16,0,0,0,.05.63c0-.09.13-.07.17-.13a.72.72,0,0,0,.34.45.26.26,0,0,0,.25,0c.17-.08.3-.09,1,0l-.07.13A6.57,6.57,0,0,0,76.84,49c.33.14-.44.35-.41.55.79-.32,1.15-1.15,1.9-1.24-.25.22-.65.45-.9.67a3.16,3.16,0,0,0,1.36-.43l-.05,0,1.2-.48-.33.08c.52-1.06,1.66-1,2.62-2-.94.93-.08.31,0,.63.33-.07.82-.19.73,0,.44-.47,1-.24,1.62-.9.07.07.6-.24.56,0,.69-.36-.23-.09-.22-.22,1-.77,2.76-.66,4.27-1.59,1.38-.61,1.56-1,2.88-1.51.5,0-.29.44-.29.44a6,6,0,0,0,2-.48c-.12.12,0,.15.28.21.56-.15.3-.43,1.07-.45a2,2,0,0,1-.48.5c.64-.23,1.26-.55,1.93-.77.22.13-.36.34-.58.5.76-.24,2-.55,2.16-.86H97.6c.28-.07.19.2,0,.29-.62.34-1,.1-1,0l.48-.16c-.62-.46-2,.49-2.94.68l.32-.5-.93.57c-.24-.06-.44-.25,0-.42-.75,0-.59.29-1.25.21-.08,0,0,0,0-.08l-.66.29c.11-.12-.19-.26.25-.31-1.3.08-1.91.84-2.46.67l.1-.05c-1.66.65-.08.33-1.23,1.08l-1.09-.43-.07.34c-.18,0-.52.15-.5,0-.57.43.15.09-.15.4-.93,0-2.2,1-2.57.64-.2.34.84-.16,0,.35-.45-.37-1,.51-1.78.64.11-.35.86-.54,0-.42-.25.62-1.46.58-2,1,.14.34-1.25.81-2.18,1.46,0-.19-2,1.05-2.75.76l0-.06c0,.18-.35.25-.58.14a.85.85,0,0,1-.19-.12l0,0,0,0s0,0,0,0l-.13.06-.11-.15a2.15,2.15,0,0,1-.29-.59c.07-.08.1,0,.42.4a2.88,2.88,0,0,1-.35-.69v0c0-.07-.12-.29.2-.41,0,0-.11,0-.1,0l.09,0s-.08,0-.11,0l-.28-.06a2.71,2.71,0,0,0-.59,0c-.33.25-.65.49-1,.72l-.51.32-.43.22c.08.25,1.24,0,.2.92a.28.28,0,0,1,0-.5,1.59,1.59,0,0,1-.51.4l.32-.49c-.54.23-.15.33-.55.56-.1-.17-.36.07-.39-.1s.38-.15.49-.31a3.58,3.58,0,0,1-1.31.49c.1.07.15.22-.16.45-.82.55-.41,0-1,.22-.13.25-.73.47-.59.73a.58.58,0,0,1-.5.06c-.36.39-2,1.34-1.33,1.28L66,52l-.06.06h0A15.37,15.37,0,0,1,63,54l.63.28A2.33,2.33,0,0,1,63.85,53l.08.05a1.62,1.62,0,0,1,.89-.85l-.46-.66a7.1,7.1,0,0,0-.68,1.14c-.18.23-.58.42-.59.25a4.54,4.54,0,0,1-1.25,1.46c.38-.68-.28.09.42-.66a5.44,5.44,0,0,0-1.51,1.66c.07-.43-.74.29-1,.67l.61-.35a9.19,9.19,0,0,1-1,1l0-.41c-1.7,1-2.26,2.88-3.89,3.23-.28.5,1-.51.75,0a10.8,10.8,0,0,1-2.05.82,1.82,1.82,0,0,0-.9.77.57.57,0,0,1-.56.44.34.34,0,0,1,0,.3.65.65,0,0,1-.71.29.54.54,0,0,1-.28-.25.43.43,0,0,1,.06-.52.29.29,0,0,1,.34,0l0,0c.05.05.06.1,0,.13.19,0,.39,0,.29-.18l-.12.12-.12-.16c-.16-.24-.08-.56.08-.52-.1-.19-.22-.08-.27.21a4.93,4.93,0,0,1,.2-.69,11.46,11.46,0,0,1,.62-1.39c-.14.15-.33.27-.26.09.84-1.6.1-.82.53-2,.44-.57.3.4.64-.79.41-.64.35,0,.32.29a8.11,8.11,0,0,1,1.25-2.43l-.14.58a5.41,5.41,0,0,1,.32-.88l-.35.22c.17-.3.29-.57.38-.52,0-.39-.47.09-.39-.64.29-.38.44-1.34.8-1.36-.68,1.28.35,0-.09,1.12a3.21,3.21,0,0,1,.35-.8c.05,0,0,.07,0,.16.81-1.16-.07-.73.51-2,.09.24.44-.17.5-.4-.24.53-.38.13-.29-.41.5-.79.32-1,.53-1.39l-.29.48c-.09-.24.13-.65.34-1.26.15,0-.15.57,0,.39,0-.78,1-1.34,1.18-2.33.3-.37.32.1.57-.23.26-1.1.73-1,1.06-2.12-.36.2-.33.28-.19-.56l-.67,1.81.21-1.26c-.25.52-.39,1.17-.57,1.47.07-.61.1-.54-.2-.37.66-.57.48-1.52,1.09-2.25l.52.28c.84-1.13.81-2.33,1.73-3.87l-.35.47c-.11-.32.46-1,.65-1.56.15.14.38-.15.61-.31-.14,0,.62-1.15.34-1.48l.6-.59c.78-1.22.3-1.71,1-2.9,0,.47.41,0,.1.88.23-.4.46-.75.34-.82.24-.18.39-1.26.78-1.53,0-.21-.12-.37.16-.81.06,0,.08.05.08.05s.3-.77-.12-.49c1.23-.93,2-3.44,3.17-4.2.47-.9,1.14-1.92,1.64-2.69,0,.08.08.06,0,.19.87-.93,0-1,1-2,.7-.4-.31.72.06.42.64.22,1-1.44,1.86-2l-.11.21c.62-.45.88-1.6,1.71-2.49,0,0,0,.08.07.07a12.15,12.15,0,0,1,1.9-3.05c-.06.44-.26.48.09.49.33-.41-.41-.16.24-1,.33-.16.93-.63,1.2-.51l-.65.73c.6-.13.85-.94,1.24-1.28l.07.16c1-1.12.76-1.38,1.92-2.51l-.2,0c.37-.9.68-.37,1.12-1.19l.47.11c.37-.45,1.28-1.63,2-2.38a15.5,15.5,0,0,1-1.53,2.16,7.65,7.65,0,0,0,1.55-1.66,2,2,0,0,1-.52.55,5.85,5.85,0,0,1,1.84-2.14c.08.18.27.17.53.06s.28-.14.44-.23L88,4.44c.39-.22.94-.43.82,0a1.3,1.3,0,0,1,.67-.24c.09,0,.21,0,.25,0l-.23.29a8.15,8.15,0,0,0-.84,1c.37,0,.35,0,.28.14s-.28.45,0,.53c-.27.49-.4.66-.46.68l-1.24,1.2c-.37.23.18-.51,0-.55-.71,1-.5.28-1.08.86.27,0,0,.53-.43,1.05l.78-.65c-.68,1.59-1.24.93-1.94,2.53l.15-.56c-.4.79-1.83,2.67-1.93,3.65-.15.09-.4.16-.22-.18-1.26,1.67-2.28,4.11-3.5,5.24l0-.22c-.2.34-.18.72-.59,1,0-.06,0-.21-.14-.08a4.67,4.67,0,0,1-.8,1.35l.13-.45c-1.39,1.51-1.59,2.73-2.58,4.14-.34-.27-1.46.88-2,1.45l0-.06c-1.57,1.78-2.32,3.31-3.68,5.05-1.27.69-3.3,3.25-5.07,4.56.29-.18.2.28,0,.59-.43.29-.82,1.2-1,.85l.14-.12c-.55,0-1.25.77-1.87,1.31l.25.48c-2.09.87-4.12,3.9-5.49,4.06-.32.43-.84.81-1.18,1.22l-.15-.24c-1.19.8-1.8,1.18-3.22,2.23l.19-.37c-.84.53-.59,1.38-1.37,1.9L50.08,48c-1.48.94-3.17,1.51-4.51,2.66,0-.07,0-.2.22-.35-.72.4-2.94,1.19-2.42,1.58,0-.08-.17-.08-.34,0l-.29.13a1.2,1.2,0,0,0-.24.14,2.86,2.86,0,0,1-.68.5l.12-.18.11-.18a2.17,2.17,0,0,1-.67.5c-.17.07-.65.24-.47-.13.11-.2.36-.33.19-.08.19-.31.12-.33.08-.41s-.07-.2.13-.54a.91.91,0,0,0,.12.19.68.68,0,0,0,0-.66l-.56-2-.39,1.32a1,1,0,0,1-.08.17c-.38.45-1.4,1-1.66.92a1.5,1.5,0,0,1-.73,1c-.12,0,0-.2.06-.28-1.31.81-1.57,1.68-2.57,2.13a.23.23,0,0,0-.24,0c1-.76,1.73-1.36,1.67-1.29-.16-.2-1,.38-.57-.39a14.53,14.53,0,0,1-1.62,2l1.45,1.23a3.35,3.35,0,0,1,.31-.53.43.43,0,0,1,.14-.07l0,.1a1.74,1.74,0,0,0,.26-.55,5.74,5.74,0,0,0,.46-.65c.24,0,.65-.93.9-1.35-.26-.1.09-.64-.41-.23.06-.06,0,.1-.17.39a1.27,1.27,0,0,0-.08.2v0L37,54.19A2,2,0,0,1,37.58,53c0-.31-.06-.64-.06-.82.67-.39,1.49-1.42,1.79-1.45.22-.5.59-1.1.77-1.64a3.37,3.37,0,0,0,.21-1.49,1.63,1.63,0,0,0-.56-1.14,1.07,1.07,0,0,0-1.08-.13l-.23.11c-.49.2-.48,0-.66,0,.31-.14.71-.32.87-.37a9,9,0,0,0-1,.35c-.36.15-.72.25-1.07.44a5.62,5.62,0,0,0-.85.56c-.16.14-.25.26-.25.37-1,.43.35-.63-.91.23l.11-.21a7.42,7.42,0,0,0-3.09,2.47,11.44,11.44,0,0,1-3,2.81c.19-.12.29-.19.36-.17-2.86,2.31-5.11,5.64-8.37,7.2h0l1,1.1a3,3,0,0,0,.9-1.56h.38l.39-1.07c.71-1.36,2.18-1.73,2.81-3.66l-.31.11c.41-.57,1-2,1.16-1.75a.49.49,0,0,1,.15-.49l.15.06.28-.82.27-.83c.68-1.15.49.47,1.34-1.29l.06-.19.32-1-.83-.3a1.86,1.86,0,0,0-1.85.41,1.45,1.45,0,0,0-.23.28.65.65,0,0,0-.11.23c0,.09,0,.13.06.1.23-.35.85-.5.9-.32a1.39,1.39,0,0,0-.32.19,1.31,1.31,0,0,0-.25.26c.14.19.24.46.44.54s.27,0,.32.11.19.11.21.19a.44.44,0,0,1,0-.13l-.56-1.39-.11.64-.35.22.37-.84A1.52,1.52,0,0,0,26.75,50a.73.73,0,0,0-.42.3l-.09,1.16c-.22,0-.1-.59-.52,0-.05.54.59-.24.32.56-.44.36-.51.14-.66.77-.15,0-.15-.13-.08-.37-.14.55-.67,1.28-.6,1.65-.5.33-.93,1.6-1.28,1.31a4.16,4.16,0,0,1-.53,1.41c.11-1-1.13,1.5-1.45,1a5.33,5.33,0,0,1-1.33,2.18L14,67.62l7.59-6a7.61,7.61,0,0,0,.88-.79.54.54,0,0,1-.21.26,10,10,0,0,1,1.27-.63c-.16-.36.63-1.13.91-1.71.9-.28-.09.69.35.79-.23-.21.92-1.24.52-1.24.64-.27.5-.3,1-.29-.25-.44.39-.48.57-1.08.84-.49.49.16,1.13-.67C28.49,56.05,28,56.82,28,56.82Zm6.94-2.13h0l.23-.45Zm2.28.19c-.2.15-.45.34-.7.55-.12,0-.12-.16,0-.28C36.46,55.28,36.87,55,37.17,54.89Zm.55-1.23c-.12.3-.23.37-.3.38l.25-.51v-.05A.36.36,0,0,1,37.72,53.65Z"/><path class="cls-1" d="M37.68,53a1,1,0,0,1,0-.13l-.15.14,0,.14Z"/><path class="cls-1" d="M65.9,52.07l0,0,.1,0Z"/><polygon class="cls-1" points="58.13 45.21 58.09 45.16 57.98 45.32 58.13 45.21"/><path class="cls-1" d="M73.68,49.2s0,0,0,0a.35.35,0,0,0,.06.11S73.65,49.22,73.68,49.2Z"/><path class="cls-1" d="M78.78,48.6l.65-.24A6.42,6.42,0,0,0,78.78,48.6Z"/><path class="cls-1" d="M82.17,47a.3.3,0,0,0,0-.14h0Z"/><path class="cls-1" d="M55.63,47.22a1.12,1.12,0,0,0,0-.14C55.77,46.75,55.69,47,55.63,47.22Z"/><path class="cls-1" d="M53.54,62.51a2.69,2.69,0,0,1-.66.39C53.28,62.82,53.59,62.65,53.54,62.51Z"/><polygon class="cls-1" points="64.31 29.17 64.31 29.18 64.37 29.07 64.31 29.17"/><path class="cls-1" d="M51.83,63a1.48,1.48,0,0,0,1-.05A3.68,3.68,0,0,1,51.83,63Z"/><path class="cls-1" d="M97.56,42.38l.18,0a0,0,0,0,1,0,0Z"/><path class="cls-1" d="M97.75,42.31l.19-.07C97.85,42.25,97.77,42.27,97.75,42.31Z"/><path class="cls-1" d="M98.34,42.08l-.4.15A.71.71,0,0,0,98.34,42.08Z"/><path class="cls-1" d="M92.69,43.3l0,.11A.14.14,0,0,0,92.69,43.3Z"/><path class="cls-1" d="M91.25,43.7a7.12,7.12,0,0,0,1.39-.2l0-.09C92.47,43.61,91.53,43.44,91.25,43.7Z"/><path class="cls-1" d="M84.86,44.48l1.22-.39c-.25,0-.58-.06,0-.29C84.42,44.09,86.45,43.91,84.86,44.48Z"/><path class="cls-1" d="M81.17,46c.6-.35-.08-.14-.07-.21C80.75,46,80.67,46.1,81.17,46Z"/><path class="cls-1" d="M62.85,53.14l-.15-.22C62.39,53.34,62.77,53,62.85,53.14Z"/><polygon class="cls-1" points="60.02 57.97 60.51 57.73 60.53 57.39 60.02 57.97"/><polygon class="cls-1" points="56.41 58.64 56.56 58.47 55.94 59.07 56.41 58.64"/><path class="cls-1" d="M69.3,25.72l-.35,0C68.81,26,69.07,26.26,69.3,25.72Z"/><path class="cls-1" d="M81.81,9.62a1.43,1.43,0,0,0,.89-.73A10.41,10.41,0,0,0,81.81,9.62Z"/><polygon class="cls-1" points="60.73 39.78 60.97 39.42 60.45 40 60.73 39.78"/><path class="cls-1" d="M87.79,54c.08,0-.08-.24-.1-.16a1.17,1.17,0,0,0,.15.24S87.78,54,87.79,54Z"/><path class="cls-1" d="M87.21,54.46a.35.35,0,0,0,.17,0l-.14-.07a.54.54,0,0,0,.19-.62,1.31,1.31,0,0,1-.19.22l.45.23c-.06,0-.1.07-.35,0-.06-.14.12-.21.23-.16-.07-.07.1-.08,0-.24a.26.26,0,0,0-.13.5A.26.26,0,0,1,87.21,54.46Z"/><path class="cls-1" d="M105.58,53.95l-.12,0A.27.27,0,0,0,105.58,53.95Z"/><path class="cls-1" d="M116.93,52.07c-.08,0-.11.07-.11.1S117,52.09,116.93,52.07Z"/><path class="cls-1" d="M118.93,52h-.12C118.86,52,118.91,52,118.93,52Z"/><path class="cls-1" d="M105.58,53.95l.32.06C105.91,53.9,105.74,54,105.58,53.95Z"/><path class="cls-1" d="M89.63,53.76a.41.41,0,0,0-.16.09l.15,0Z"/><path class="cls-1" d="M100.58,54.79h-.09a.84.84,0,0,0-.07.14Z"/><path class="cls-1" d="M96.69,55.15c.09,0,.1-.28.13-.4a.3.3,0,0,1-.18.2A.55.55,0,0,0,96.69,55.15Z"/><path class="cls-1" d="M90.51,54.89l-.11,0Z"/><path class="cls-1" d="M103.36,54.56a.26.26,0,0,0,0,.1A.18.18,0,0,0,103.36,54.56Z"/><path class="cls-1" d="M150.14,2.13a.37.37,0,0,0,0,0S150.17,2.12,150.14,2.13Z"/><path class="cls-1" d="M154.95,2.47l-.06,0a1.28,1.28,0,0,0,0,.16Z"/><path class="cls-1" d="M122.51,51.4h0C122.41,51.45,122.46,51.43,122.51,51.4Z"/><path class="cls-1" d="M116.92,37.4c.24.36-.64.1-.25.55C116.67,37.84,117.27,37.7,116.92,37.4Z"/><path class="cls-1" d="M89.73,53.8h.16A.39.39,0,0,0,89.73,53.8Z"/><path class="cls-1" d="M116.67,38h0l0,0Z"/><path class="cls-1" d="M130.41,48.74a.35.35,0,0,0-.12-.09S130.33,48.71,130.41,48.74Z"/><path class="cls-1" d="M124.39,50.26h.16A.47.47,0,0,0,124.39,50.26Z"/><path class="cls-1" d="M133.36,46.73c.09-.05.14-.05.21-.18h-.05A.22.22,0,0,1,133.36,46.73Z"/><path class="cls-1" d="M134.41,42.82l0,.1.06.13S134.42,42.82,134.41,42.82Z"/><path class="cls-1" d="M141,6.79a.82.82,0,0,1,.26.15C141.07,6.79,141.46,6.49,141,6.79Z"/><path class="cls-1" d="M89.64,53.92c0-.07,0-.11.1-.12h-.11A.12.12,0,0,0,89.64,53.92Z"/><path class="cls-1" d="M131.91,45.05s.23-.21.23-.21A2.32,2.32,0,0,0,131.91,45.05Z"/><path class="cls-1" d="M121.14,20.38l.07-.11A.14.14,0,0,0,121.14,20.38Z"/><path class="cls-1" d="M132.42,44.06a.37.37,0,0,0,.2-.12l-.07,0Z"/><path class="cls-1" d="M141.21,6.94h0Z"/><path class="cls-1" d="M144,4.67c-.45.24,0,.43,0,.67-.48.38-.38-.1-.65-.17-.28.27-.37.7-.62.83,0,0-.11,0-.09-.13-.21.45-1,.58-1.25,1.13a.21.21,0,0,1-.1-.05,1.07,1.07,0,0,1,.31.41c-.19.11-.25.41-.44.24.12-.06.09-.15.11-.25l-.15.21c-.35-.2.22-.26.1-.49-.35.33-.67.84-1,.93-.23-.26.66-.51.1-.54l.54-.16c-.63-.26.31-.13-.31-.44-.68.27-.62.55-1.29.81,0,.24.18.22.14.46-.72.8-1.12-.34-1.55.43-.06.29.1.7-.48.77l0-.42c-.63.32-.07.68-.83.83,0-.2.41-.39.29-.38-.56,0-.18.36-.49.55l-.24-.25c-.61.43-1.19,1.06-1.86,1.55,0-.11.05-.28-.17-.26a10.37,10.37,0,0,1-2.86,1.53l-.16.45c-.08,0-.21,0-.16-.12-.39.13.09.17,0,.37s-.34,0-.27-.13a4.67,4.67,0,0,1-2.11,1.72l.07-.15c-.53.24-.17.86-.76.95l.05-.1c-1.08.61-2,1.67-3,1.9.13.44-1.07.63-.76,1.14-.73.22-.65,0-1.53.52-.22.16-.06.54-.26.8l-.21-.23-.12.54-.43-.12-.18.27c.1-.07.29-.08.33,0-.26.43-1,.65-1.12.54l-.65,1c-.07-.11,0-.27.1-.43-.22.65-.31-.16-.51.44.1,0,.1.16.14.21a2.35,2.35,0,0,0-1,.92l-.09-.21a25.43,25.43,0,0,0-1.79,2.11c.3-.19.53.11.37.34l-.32-.13c0,.27.29-.14.23.3-.26.24-.44-.06-.39-.28l-.1.2-.09.21c-.09,0-.07-.16-.14-.26,0,.27-.73.38-.62.81l-.09,0a17.87,17.87,0,0,0-1.23,1.81c.22.18,0,.39,0,.71a6.49,6.49,0,0,0-1.33,1.44c-.14.51.13.25.16.53-.24-.1-.57.56-.55.14a5.26,5.26,0,0,0-.6,2.28c.13-.11.21-.23.28-.14s-.21.45-.32.4v-.06c.06.69-.14,1.47-.09,2.32a2.24,2.24,0,0,0,1,2l-.06,0a5.93,5.93,0,0,0,1,.63c.38.36-.37,0-.16.32a6.33,6.33,0,0,1,1.38.7,2.55,2.55,0,0,0,1.21.47c.2.48.83.68,1.47.79a4.15,4.15,0,0,1,1.72.49l0-.19c.26-.13.25.15.41.22,0-.14-.21-.2-.06-.27A32.14,32.14,0,0,1,125.38,42c.7.18.57-.83,1.39-.25l-.31.28a7.93,7.93,0,0,1,2.22.22,9.62,9.62,0,0,0,2.12.27c-.09.06-.12.15-.24.12.22.28.9.25,1,.08.16.08,0,.18,0,.31s.61,0,.55.22c0,0-.09,0-.12,0,.19,0,.29.3.44.06,0,.25.34.36.19.59.32.16-.21.44.17.63-.4-.16-.56.36-.6.67-.05-.14-.23,0-.31-.16-.17.17-.34.39-.16.55-.38-.07-.55.16-.77.36s-.43.36-.72.11a22.48,22.48,0,0,1-2.84,1.52c-.11-.44,1.06-.41.87-.84-.86.49-1.27,1-2.23,1.22-.26,0,.08-.23.13-.33-.87.47-1.8.53-2.56,1,0,0,.07-.11.14-.17-.16.06-.4,0-.32.24l.14-.1c.35.21-.48.79-.46.95.12-.65-.86.1-.62-.75-.1.07-.21.2-.14.33-.17,0-.24-.05-.12-.25-.56.28-.29.42-.83.56,0-.1.07-.16.1-.29a1.25,1.25,0,0,1-.92.56c0-.07-.06-.13.07-.16-.77.24-1.2.86-2.1.88.15-.48-.33-.07-.46-.42l-.43.22.23.13c-.41.09-.7.44-1.08.41l.27-.22-.74.24.46,0c-.37.28.15.45-.42.47.1-.06-.41.09-.67-.08h0a.85.85,0,0,1-.68.3c-.1-.1,0-.42-.09-.48-.13.35-.93.3-1.12.67a.34.34,0,0,0,0-.32l-.12.28c-.21,0-.24-.08-.24-.23-.58.07.27.43-.44.36,0,0,0-.06.12-.12-.7,0-1.28.42-1.93.41-.25-.34.53-.19.26-.46a17,17,0,0,1-2.68.83h.17c0,.55-.7-.16-1.1.16.1-.06.1-.31.08-.25a8,8,0,0,0-2.09.61l.09-.15a9.59,9.59,0,0,0-1.33,0c-.1.15-.32.16-.16.34-1.27-.61-2.22.67-3.34.15.13,0,.29-.15.19-.14l-.88.21c.09.22.13.13.34.29a.84.84,0,0,1-.57.29c.39-.19,0-.37-.22-.48,0,.07,0,.15,0,.22-.51-.37,0,.47-.7.25l0-.12c-.23.08-.44.26-.71.25-.13-.26.25-.15.24-.37-.36,0-.68.57-1,.32.15-.08.37-.1.52-.19a.89.89,0,0,0-.69-.24h0L97,53.6l.16.07c-.41.72-.92.19-1.51.68.57-.47.08-.26.11-.56-.16-.07-.4-.15-.34-.24-.28.26-.49-.17-.88.2,0-.1-.31,0-.26-.24-.37.09.1.17.07.29-.57.35-1.38-.34-2.2.13-.72.2-.84.53-1.51.71-.23-.15.18-.36.18-.36a1.33,1.33,0,0,0-1,0c.07-.09,0-.16-.11-.27-.28,0-.18.35-.55.21a1.33,1.33,0,0,1,.27-.39c-.32.09-.64.27-1,.36-.09-.17.2-.26.32-.37-.38.08-1,.15-1.1.42l.24.1c-.14,0-.07-.23,0-.28a.3.3,0,0,1,.48.19l-.24.06c.24.57,1-.09,1.45-.06l-.2.42.49-.34c.11.11.18.34-.06.4.35.2.31-.15.61.07,0,0,0,.06,0,.07l.34-.13c-.07.09.06.29-.15.24.62.23,1-.33,1.21,0l-.05,0c.84-.16.07-.31.7-.68l.45.74.07-.31c.09,0,.26,0,.23.15.32-.22-.06-.13.12-.34.43.26,1.15-.18,1.27.3.14-.24-.41-.16,0-.34.15.51.51-.11.91.11-.1.28-.47.16-.08.37.21-.47.75.05,1.07-.06,0-.36.69-.2,1.23-.35,0,.13,1,.12,1.55.2v.06c.07-.37.59-.35,1-.46a.4.4,0,0,1-.25.43l.36,0a.58.58,0,0,1,.41-.26l-.06.28c.47-.06.92-.42,1.55-.31,0-.26-.56-.66.06-.9,0,.14.09.37-.07.44.05,0,.18-.14.3-.09l-.23.26c.29.07.12-.21.35-.21,0,.2.18.12.17.28s-.2-.06-.28,0a1.08,1.08,0,0,1,.69.23.22.22,0,0,1,.15-.31c.47-.07.19.22.48.28.1-.15.42,0,.39-.34.14,0,.18.12.24.19.23-.16,1.14-.19.82-.46l-.07.14,0,.13h0c.76-1,1.68-.22,2.46-.47v0a5.06,5.06,0,0,0,1.34-.53c.14,0,.36.1.32.23.35-.14.37-.26.92-.19-.33.23.15.12-.35.18.48,0,.62.14,1.07-.22-.13.28.41.25.62.14l-.36-.12a3.21,3.21,0,0,1,.69-.12l-.06.35c1,.21,1.59-1,2.45-.5.2-.28-.55-.05-.38-.37.45,0,1,.32,1.14.29.64,0,.46-.6,1.11-.61-.11-.1-.25-.39.19-.6.45-.05.65.36.39.52-.1,0-.16,0-.17,0s-.31.16-.1.25l0-.13c.25.07.84-.08.75.14.3-.19.1-.22-.16-.22a13,13,0,0,0,1.48-.24c-.11,0-.22-.16-.13-.18.88-.06.32-.31.88-.5.37.09,0,.45.53.15.38,0,.15.29,0,.42.47-.36,1-.11,1.33-.15l-.25.17a1.3,1.3,0,0,1,.42-.17l-.22-.19c.17,0,.31,0,.33.06.13-.19-.23-.35,0-.64.25.06.62-.3.78,0-.7.08.16.29-.4.49a.78.78,0,0,1,.41-.1s0,.07,0,.1c.72.09.2-.43.87-.61,0,.2.25.28.35.21-.27.07-.21-.25,0-.45.47,0,.44-.23.66-.28h-.27c0-.2.26-.23.54-.37.07.13-.24.17-.12.2.24-.39.84.09,1.24-.26.25,0,.12.31.33.33.45-.38.63.06,1.12-.29-.23-.18-.24-.11.07-.46l-.84.44.47-.51c-.27.08-.52.32-.69.33.21-.27.2-.21,0-.35.47.23.66-.43,1.16-.33l.17.57c.72,0,1-.67,1.9-.8h-.3c0-.26.5-.2.73-.38,0,.19.23.21.38.28-.07-.13.62-.2.56-.61l.47.09c.75-.21.56-.85,1.19-1.17-.07.3.3.23-.06.64.23-.13.44-.24.37-.35.21,0,.41-.64.7-.7,0-.15-.11-.31.08-.52.05,0,.08.06.08.06s.15-.44-.17-.36a1.38,1.38,0,0,0,.81-1.23c.09-.57,0-1.1.07-1.57a3.45,3.45,0,0,0-1.34-1.37c.06,0,.05-.08.13,0-.54-.54-.64.26-1.23-.21-.25-.43.43,0,.25-.22.11-.67-.91-.22-1.29-.67H131c-.34-.3-.94.07-1.5-.08a.12.12,0,0,0,0-.1,3.94,3.94,0,0,1-1.78.22c.22-.22.28-.09.22-.36-.25,0,0,.42-.51.4-.14-.17-.47-.35-.47-.63l.47.07c-.17-.39-.61-.1-.84-.2l.06-.15c-.72-.08-.8.3-1.57.14l.06.13c-.49.31-.31-.28-.78-.07l-.06-.41a9.41,9.41,0,0,1-1.55.18,4.54,4.54,0,0,1,1.33-.38c-.27-.05-.94-.14-1.12,0,.12,0,.27-.09.37,0a1.9,1.9,0,0,1-1.41.21c.23-.74-1.39-.45-1.68-1.11-1,.1-1.84-.46-2.86-.73.18.68-.3-.07-.43.52-.25,0-.34-.09-.35-.14l-.29-.31c-.14-.15-.26-.32-.26-.32-.08-.24.26,0,.3-.16-.44-.26-.09-.32-.3-.61,0,.23-.3.2-.48,0,0,0,.2.44.2.44-.78-.08-.24-.72-.9-.85l.27,0c-.35-.12-.71-.72-1.24-.8,0-.08.17-.2.26-.11-.1-.32-.33-.64-.43-1a1.21,1.21,0,0,1,.13-1.1l.13.1c0-.15-.19-.34,0-.48.05,0,.12.11.15,0s-.09-.49.09-.66l.08.24c.53-.67.27-1.39.63-2.12.36.25.92-.28,1.2-.54l0,0A18.58,18.58,0,0,0,117.62,27c.76-.2,1.58-1.53,2.48-2.1-.17.06-.23-.25-.13-.42s.25-.7.51-.39l-.07.06c.41.14.68-.29,1-.56l-.32-.42c1.27-.15,1.76-2.06,2.66-1.9.1-.26.33-.46.43-.72l.17.22a10.13,10.13,0,0,0,1.46-1.16v.27c.38-.29,0-1,.29-1.31l.37.25c.67-.51,1.55-.73,2-1.53a.21.21,0,0,1,0,.26c.33-.22,1.4-.65.95-1,.23.3.72-.48,1-.87l.1.27c.11-.51.07-.6.46-1,.13,0,.22.12,0,.16.43-.12.13-.4.63-.57l-.06.26c.37-.23.29-.29.38-.59s.73-.39.92-.21a.5.5,0,0,1,.31-.54c.08.06,0,.16,0,.21.71-.24.74-.86,1.31-.89a.21.21,0,0,0,.16.1,7.28,7.28,0,0,1-.87.49c.14.21.56,0,.43.5.21-.36.54-1.05,1-1.19l.1,0,0,0a.41.41,0,0,0,.22-.19,1.36,1.36,0,0,0,.36-.13c.15.15.52-.18.72-.29-.16-.23.12-.35-.24-.4,0,0-.11.05-.23.14s-.16,0-.16.08v0c0,.08-.21.19-.4.32a.55.55,0,0,1,.53-.42,4.66,4.66,0,0,1,.07-.56c.48.17,1.13,0,1.32.2.53-.51,1.4-.94,1.52-1.62.14-.16.28,0,.39,0-.08.1-.2.17-.22.26.28-.32,1-.65.92-1,.53-.11-.08.44.5,0l0,.14c1.49-.17,1.5-1.93,3.22-2-.12,0-.17,0-.22,0,1.69-.55,3-2,4.8-2.24.48-.1.43-.34.64-.62l.21.24.33-.51c.59-.51,1.4.25,2.1-.47l-.17-.16c.32-.06,1-.4,1-.15,0,0,.05-.23.2-.16l0,.15.35-.22.36-.21c.62,0,0,.63.89.52.3-.1.87-.56.74-.66s-.35-.06-.38-.22l.3-.12c0-.47.24-1-.62-1.21l-.27.18-.26.19-.22-.19.47-.09c-.3-.17-.45,0-.61.2a.4.4,0,0,0-.28-.2l-.46.55c-.11-.16.17-.4-.22-.43-.21.26.33.34-.05.57-.31-.14-.28-.33-.54-.07-.07-.11,0-.2.08-.28-.24.2-.71.26-.77.54-.35-.17-.87.36-1-.07a1.6,1.6,0,0,1-.58.6c.25-.66-.9.32-1-.25-.14.57-1.07.69-1.5,1.19,0,0,0-.15.1-.15a1.84,1.84,0,0,1-.71,0c.13.37-.3.69-.44,1-.54-.15,0-.52-.26-.79.16.27-.5.61-.25.78-.39-.06-.29,0-.59-.19.18.46-.22.21-.31.6-.51,0-.32-.35-.69,0C143.64,5,144,4.67,144,4.67Zm-9.81,6.61h0l.2-.14Zm-.84.53.37-.22c.08.06.1.17,0,.22S133.47,11.8,133.3,11.8Zm2.79.56c-.11.11-.18.09-.23.06l.21-.17v0A.39.39,0,0,1,136.09,12.37Z"/><path class="cls-1" d="M136.14,11.91l0-.05h-.11V12Z"/><path class="cls-1" d="M105.44,53.92h0l0,0Z"/><polygon class="cls-1" points="121.88 19.53 121.93 19.59 121.96 19.48 121.88 19.53"/><path class="cls-1" d="M99.94,53.57a.15.15,0,0,0-.08-.07S99.9,53.54,99.94,53.57Z"/><path class="cls-1" d="M97.6,53.69l-.34-.08A1.79,1.79,0,0,0,97.6,53.69Z"/><path class="cls-1" d="M95.8,53.67a.45.45,0,0,0,0,.12h0Z"/><path class="cls-1" d="M123.74,48.49l.06,0C123.94,48.36,123.84,48.41,123.74,48.49Z"/><path class="cls-1" d="M115.69,51.24a1.62,1.62,0,0,1,.24-.19C115.78,51.07,115.66,51.09,115.69,51.24Z"/><polygon class="cls-1" points="131.88 45.07 131.89 45.08 131.91 45.05 131.88 45.07"/><path class="cls-1" d="M116.32,51a.56.56,0,0,0-.39.08A.86.86,0,0,0,116.32,51Z"/><path class="cls-1" d="M88,53.73H88a.08.08,0,0,1,0,0Z"/><path class="cls-1" d="M87.94,53.77l-.1,0S87.93,53.8,87.94,53.77Z"/><path class="cls-1" d="M87.64,53.87l.2-.07C87.77,53.8,87.69,53.79,87.64,53.87Z"/><path class="cls-1" d="M90.41,53.86l0-.1A.2.2,0,0,0,90.41,53.86Z"/><path class="cls-1" d="M91.13,53.81c-.17,0-.43-.21-.67-.14l0,.08C90.55,53.6,91,54,91.13,53.81Z"/><path class="cls-1" d="M94.19,55l-.61-.06c.11.1.26.24,0,.28C94.34,55.5,93.39,55,94.19,55Z"/><path class="cls-1" d="M96.09,55c-.32.07,0,.16,0,.22C96.29,55.15,96.34,55.12,96.09,55Z"/><path class="cls-1" d="M109.7,53.5v.26C109.95,53.68,109.69,53.66,109.7,53.5Z"/><polygon class="cls-1" points="112.03 51.74 111.76 51.63 111.69 51.88 112.03 51.74"/><polygon class="cls-1" points="113.89 53.23 113.79 53.29 114.19 53.11 113.89 53.23"/><path class="cls-1" d="M134.87,43.59l-.3.14C134.63,43.94,135,44,134.87,43.59Z"/><path class="cls-1" d="M125.26,39.59a.4.4,0,0,0-.53-.2C124.94,39.45,125.14,39.61,125.26,39.59Z"/><polygon class="cls-1" points="121.67 23.16 121.61 23.37 121.81 23.06 121.67 23.16"/><path class="cls-1" d="M108.07,77.92c.06.07.23.17.23.09l-.25-.22Z"/><path class="cls-1" d="M108.84,77.88a1.25,1.25,0,0,0-.55-.52c.22.24.1.19.37.47,0,.08-.15,0-.25,0,.06.07-.12,0,0,.19s.33,0,.22-.24A.52.52,0,0,1,108.84,77.88Z"/><path class="cls-1" d="M113,72.6h0Z"/><path class="cls-1" d="M115.45,69.25a.07.07,0,0,0,0,.08S115.48,69.26,115.45,69.25Z"/><path class="cls-1" d="M116.15,68.87l0,0S116.16,68.89,116.15,68.87Z"/><path class="cls-1" d="M113,72.6l.15,0C113.05,72.5,113,72.57,113,72.6Z"/><path class="cls-1" d="M108.69,76.67a.2.2,0,0,0,0,.1.31.31,0,0,1,0-.07Z"/><path class="cls-1" d="M112.2,74.27l0,0,.1.1Z"/><path class="cls-1" d="M111.46,75.47s-.2-.19-.29-.26c.09.08.12.13.12.16Z"/><path class="cls-1" d="M109.81,77v0Z"/><path class="cls-1" d="M112.81,73.47l.09,0Z"/><path class="cls-1" d="M132.4,39.85h0Z"/><polygon class="cls-1" points="133.89 38.59 133.91 38.61 134.07 38.6 133.89 38.59"/><path class="cls-1" d="M117.17,68h0S117.17,68,117.17,68Z"/><path class="cls-1" d="M123.62,58c-.28,0-.15-.36-.49-.35C123.23,57.67,123.39,58,123.62,58Z"/><path class="cls-1" d="M108.74,76.66l0,0S108.74,76.64,108.74,76.66Z"/><path class="cls-1" d="M123.13,57.63h0Z"/><path class="cls-1" d="M118.69,65.41l-.12,0Z"/><path class="cls-1" d="M117.12,67l.06,0Z"/><path class="cls-1" d="M119,64.23s.07,0,.06-.05h0S119.06,64.22,119,64.23Z"/><path class="cls-1" d="M119.67,63.23h-.06v0Z"/><path class="cls-1" d="M131,42.76l.24.09C131,42.76,131.07,42.57,131,42.76Z"/><path class="cls-1" d="M108.82,76.76c-.05,0-.08-.07-.08-.1v0Z"/><path class="cls-1" d="M117.19,63l.14-.14A.43.43,0,0,0,117.19,63Z"/><path class="cls-1" d="M126.21,50V49.9S126.18,49.93,126.21,50Z"/><path class="cls-1" d="M117.61,62.32a.5.5,0,0,0,.22,0l0-.06Z"/><path class="cls-1" d="M131.21,42.86h0Z"/><path class="cls-1" d="M131.32,41.48c-.09.14.26.26.42.4,0,.23-.28-.07-.48-.11,0,.16.24.43.18.5s-.08,0-.14-.08c.17.28-.22.35,0,.7l-.09,0a2.85,2.85,0,0,1,.44.26c0,.07.11.26-.11.15,0,0,0-.1-.09-.16l0,.13c-.33-.13,0-.16-.25-.31,0,.2.13.52,0,.57-.3-.17.07-.31-.27-.34l.22-.09c-.53-.17.1-.08-.46-.28-.23.16,0,.34-.24.5.12.15.24.14.37.29.08.5-.87-.23-.65.24.15.18.49.45.19.48l-.28-.27c-.17.19.38.43,0,.5-.1-.12,0-.24-.05-.23-.35,0,.11.22,0,.33l-.3-.17c-.1.25-.07.64-.18.92-.07-.07-.14-.17-.26-.17-.07.41-.48.64-.85.83l.17.28s-.14,0-.17-.08.15.11.21.23-.2,0-.24-.1c.07.34.05.89-.36.93l0-.09c-.21.1.37.53,0,.53l0-.06c-.35.3-.4.85-1,.89.32.29-.4.26.07.61-.38,0-.43-.07-.79.12-.08.06.23.32.21.45l-.26-.17.18.31-.35-.13v.14a.28.28,0,0,1,.24.05c0,.22-.41.23-.55.15v.48c-.1-.08-.1-.16-.13-.25.14.36-.29-.15-.16.18.07,0,.14.11.19.15a.36.36,0,0,0-.36.35l-.16-.14c-.21.22-.27.59-.46.87.15,0,.44.18.41.28l-.29-.15c.13.17.16,0,.29.23-.1.08-.36-.14-.4-.25V52c-.09,0-.11-.11-.21-.18.13.17-.42,0-.18.31l-.09,0a7,7,0,0,0-.32.71c.23.16.12.22.26.41-.19.12-.5.18-.61.4s.17.17.27.33c-.22-.13-.34.08-.42-.12a1.58,1.58,0,0,0-.2.76c.11,0,.17,0,.23.08s-.17.07-.27,0v0c.09.56-1.16.38-.9,1v0l0,.44c-.12.11-.11-.19-.3-.18.15.55-.38.45-.31.87-.76-.22-.42.73-1,.72l.16.08c.1.17-.14,0-.21.05.12.07.18,0,.23.11-.21.7-1,1.06-1.55,1.56-.19.19.68.64.15.67l-.22-.26c0,.66-.61.89-.62,1.51,0-.07-.13-.12-.1-.17-.26,0-.23.33-.07.44-.06.05-.16-.08-.27-.1s.1.4-.13.32c0,0,0-.07-.05-.1.06.12-.21.26.06.36-.22.09-.1.38-.33.42.2.26-.31.19,0,.46-.37-.26-.49.08-.38.3-.09-.11-.18,0-.31-.14a.25.25,0,0,0,.13.38c-.59-.09.07.67-.58.41A5,5,0,0,1,116.5,65c-.37-.26.19-.37-.21-.62,0,.4.16.78-.12,1-.1,0-.13-.15-.18-.22,0,.4-.42.55-.39.95a.21.21,0,0,1-.06-.12c0,.06-.14.08,0,.19v-.08c.3.08.38.55.5.65-.43-.41-.3.18-.82-.38a.35.35,0,0,0,.18.22c-.07,0-.14,0-.24-.14,0,.25.19.3.08.47-.08-.06-.09-.11-.18-.19.1.19.21.39,0,.48s-.12-.07-.09-.11c-.14.26.15.7-.18.87-.31-.32-.18,0-.5-.18V68l.19,0c-.09.12.06.39-.11.43l-.07-.18-.1.28.21-.05c.07.23.4.25.2.36,0-.06-.09.12-.32.07h0c.06.13.12.26,0,.3S114,69,113.93,69c.22.23-.13.34.1.61a.85.85,0,0,0-.25-.19l.18.19c-.11,0-.14,0-.27-.1-.16.15.43.21.12.3,0,0,0,0-.05-.1-.23.15-.14.49-.37.62-.35-.15,0-.22-.27-.33-.13.32,0,.82-.26,1l.07,0c.42.33-.35.05-.23.33,0-.05-.22-.21-.17-.17-.19.14-.14.45-.19.82l-.09-.11c-.17,0-.25.25-.38.33.09.11,0,.16.22.23-.89-.07-.11.92-.87.88,0,0,0-.16-.06-.13l-.08.34c.21.11.14,0,.33.08s.13.25.08.31c0-.21-.31-.21-.45-.22.06,0,.12.09.18.13-.44-.09.37.28,0,.32l-.09-.08c0,.11.09.26,0,.32-.24-.12-.05-.15-.23-.27-.06.12.28.5,0,.45,0-.09,0-.16,0-.24-.33-.07-.28,0-.37,0v-.15l-.24,0h.1c.49,1-.08.5.17.94-.24-.42-.19-.09-.43-.28-.1,0-.23.06-.29,0,.14.22-.26.06,0,.38-.08,0-.07.1-.26-.06,0,.16.16.07.25.15.16.36-.61.19-.4.7,0,.32.26.55.26.84-.18,0-.26-.25-.26-.25-.19,0-.23.13-.2.29a.42.42,0,0,0-.24-.12c0,.1.26.25.06.28a2.19,2.19,0,0,1-.27-.3c0,.15.1.35.1.5-.16-.07-.17-.2-.24-.3a.59.59,0,0,0,.13.57l.13,0s-.21-.11-.23-.17c-.11-.22.17-.09.26,0v.11c.53.24.12-.34.24-.47l.31.29-.19-.34c.11,0,.32.14.32.24.24,0-.06-.17.19-.14a.08.08,0,0,1,.06,0l0-.17c.06.07.26.15.16.18.32,0-.06-.47.25-.36v0c.05-.33-.24-.19-.41-.58l.71.29-.24-.19s.08-.06.18,0c-.11-.21-.12-.06-.25-.22.32,0,.13-.42.55-.18-.16-.17-.23,0-.27-.2.46.25,0-.21.31-.19.2.19,0,.22.29.23-.33-.32.23-.17.23-.32-.3-.21,0-.3,0-.53.09.08.37-.2.58-.28l0,0c-.29-.23-.12-.35-.11-.51.18.13.24.2.28.31l.07-.11a.29.29,0,0,1-.1-.25l.21.18c.08-.15-.08-.47.2-.55-.21-.15-.69-.25-.7-.54.12.07.32.19.33.28s-.06-.12,0-.12l.14.21c.14,0-.13-.15-.07-.21.16.11.15,0,.27.13s-.11,0-.06.08a.45.45,0,0,1,.38,0c-.1-.06-.22-.15-.21-.22s.23.08.37.06c-.09-.11.09-.12-.16-.29,0,0,.15,0,.23.06-.06-.15.2-.37-.12-.46h0v0h0c-.08-.41.48-.41.53-.72l.08.06c0-.21.16-.36.05-.58,0,0,.22,0,.3.08,0-.15-.07-.22.17-.29.07.21.15,0,0,.18.17-.1.32.08.2-.22.18.19.34.08.32.08h-.22s.08-.27.15-.33l.25.16c.53-.07-.22-.94.49-.78-.14-.21-.24.05-.42-.17.13-.11.62,0,.65,0,.28-.08-.29-.45-.06-.57-.11,0-.39-.2-.39-.4s.52.11.55.25-.06,0-.09,0,0,.15.15.17l-.09-.08c.15,0,.26-.19.39,0,0-.16-.13-.15-.23-.11.26-.08.18-.27.4-.38-.07,0-.21-.06-.19-.09.3-.18-.11-.24,0-.44.22,0,.33.28.33,0,.17,0,.28.15.33.25-.08-.29.33-.22.42-.29l0,.14a.2.2,0,0,1,0-.17l-.23-.08c.07,0,.1-.07.18,0-.09-.14-.35-.18-.46-.4.14,0,0-.27.31-.12-.23.15.28.15.2.36,0-.06,0-.1.09-.12a.09.09,0,0,1,.06.07c.37,0-.23-.29-.09-.49.13.13.31.14.3.08s-.27-.12-.33-.28c.2-.06,0-.2.07-.26l-.11,0c-.13-.13-.07-.18,0-.3.12.07,0,.14.1.14-.19-.28.42-.05.35-.31.14,0,.28.18.39.17-.08-.29.32,0,.27-.31-.23-.08-.19,0-.3-.29l0,.37-.17-.37c-.06.08,0,.26-.06.29-.1-.19-.06-.15-.25-.22.37.08,0-.34.27-.34l.49.33c.35-.05,0-.52.28-.7l-.14,0c-.17-.17.08-.18.06-.32a.79.79,0,0,0,.38.14c-.12-.08.14-.18-.17-.43l.29,0c.23-.15-.31-.55-.12-.72.14.18.32.17.35.39,0-.07.12-.11,0-.18.13,0-.1-.33.1-.29-.05-.08-.22-.2-.15-.27A.29.29,0,0,1,119,64c-.08-.05,0-.19-.26-.25.65.14.35-.6.91-.49a2.35,2.35,0,0,1,.19-.54s.08.06,0,.07c.28-.08-.4-.43-.09-.52.34.07.07.21.21.21.56.33.1-.3.5-.23v.06c.26,0,0-.4.13-.55a.3.3,0,0,0,.08.06,1,1,0,0,1-.1-.81c.18.19.06.15.3.26,0-.1-.36-.21-.32-.4a1.24,1.24,0,0,1,.56.13l-.08.15c.35.13.11-.19.22-.23l.12.1c.1-.25-.22-.47,0-.69l-.11,0c-.24-.34.25,0,.1-.27l.35.18a2.45,2.45,0,0,1-.08-.7,2.08,2.08,0,0,1,.26.72c.06-.08.17-.3,0-.45,0,.06.06.15,0,.15q-.28-.41-.11-.66c.62.46.45-.33,1-.12,0-.45.49-.52.69-.89-.58-.21.05-.11-.47-.43,0-.1,0-.13.09-.11l.47,0c.19,0,.06.15.18.22.16-.15.26.07.48,0-.2-.1-.22-.24-.08-.29l-.33,0c-.11-.43.57.07.47-.35l.11.19c0-.19.32-.47,0-.86.07,0,.23.08.23.16.26-.26,0-1,.43-1l.11.11c0-.08-.17-.26,0-.24s.11.11.13.08-.12-.3,0-.32l.1.16c.36-.19,0-.68,0-1a.67.67,0,0,0,.78,0l0,0c.28-.32.09-.79.16-1.21.53.07.62-.56,1.05-.73-.1,0-.28-.2-.28-.28s-.12-.38.21-.14l0,0c.37.16.38,0,.47-.16l-.43-.31c.85.11.32-1,1-.77-.06-.15,0-.24-.05-.39l.23.16a1.14,1.14,0,0,0,.42-.55l.13.17c.11-.14-.55-.64-.48-.78l.38.19c.17-.26.65-.31.5-.78,0,0,.15.11.13.16.09-.11.55-.31,0-.59.32.21.21-.24.16-.47l.22.18c-.22-.31-.3-.37-.27-.59.06,0,.21.09.11.1.21,0-.15-.25.08-.32l.11.16c.11-.12,0-.16-.1-.35s.23-.21.45-.09c-.12-.1-.24-.29-.13-.33a.27.27,0,0,1,.13.13c.31-.12,0-.51.28-.51a.39.39,0,0,0,.16.07c-.12.17-.23.3-.24.28.21.14.35,0,.57.34-.08-.22-.3-.65-.11-.72l.09,0v0s0-.06,0-.11a.26.26,0,0,0,.14-.07c.19.1.2-.1.26-.16-.24-.15-.14-.22-.39-.26,0,0,0,0,0,.09a.08.08,0,0,0,0,0l0,0-.1.19c-.08-.14-.14-.26,0-.25l-.31-.35c.39.12.69.05.91.16,0-.3.25-.57-.09-1,0-.1.17,0,.26,0s0,.1,0,.16c0-.2.2-.39-.09-.63.24-.06.22.28.32,0l.07.09c.77-.09-.33-1.2.61-1.25a.21.21,0,0,1-.15,0c.64-.37.45-1.28,1.2-1.65.18-.13,0-.25-.15-.43l.3.08-.25-.31c-.15-.33.88-.25.49-.76h-.21c.07-.12,0-.43.18-.37,0,0-.2-.07-.09-.11h.16l-.12-.18-.12-.17c.12-.25.63.07.66-.35-.07-.16-.49-.39-.59-.32s-.09.15-.24.17l-.09-.11a2.48,2.48,0,0,0-1.25.26l.15.06.14.07-.23,0v-.11c-.21.07,0,.1.1.15a.72.72,0,0,0-.25,0l.22.08.22.09c-.18,0-.36-.09-.46,0,.2.09.41,0,.54.1-.22.05-.39,0-.22.11a.41.41,0,0,1-.24-.07c.13.09,0,.19.26.28-.27,0,0,.28-.42.15.09,0,.3.23.29.31-.46-.29-.12.25-.64,0,.41.26.06.4.21.68,0,0-.09-.08-.06-.08s-.22,0-.33.06c.34.19.34.38.51.58-.39-.07-.36-.3-.7-.43.28.15.17.35.42.45a.9.9,0,0,1-.45-.1c.41.26,0,.12.24.35-.29,0-.41-.21-.37,0C131.39,41.7,131.32,41.48,131.32,41.48Zm-1.62,4h0l0-.08Zm-.2.3a.59.59,0,0,0,.1-.12c.09,0,.16.11.14.14S129.6,45.75,129.5,45.75Zm2,.45c0,.07-.05.05-.11,0a.4.4,0,0,0,0-.1l0,0Z"/><path class="cls-1" d="M131.29,45.91s0,0,0,0h-.07l.06.07Z"/><path class="cls-1" d="M112.93,72.62h0Z"/><polygon class="cls-1" points="126.31 49.55 126.37 49.59 126.34 49.53 126.31 49.55"/><path class="cls-1" d="M111,73.72l-.07,0Z"/><path class="cls-1" d="M110.5,74.39l-.15,0A.45.45,0,0,0,110.5,74.39Z"/><path class="cls-1" d="M110,74.86l.09.08h0Z"/><path class="cls-1" d="M115.53,66a0,0,0,0,0,0,0C115.52,65.92,115.52,66,115.53,66Z"/><path class="cls-1" d="M114.36,69a.72.72,0,0,1-.06-.16S114.22,68.88,114.36,69Z"/><polygon class="cls-1" points="117.17 62.97 117.17 62.97 117.19 62.95 117.17 62.97"/><path class="cls-1" d="M114.39,68.69a.09.09,0,0,0-.08.12S114.4,68.75,114.39,68.69Z"/><path class="cls-1" d="M108.34,77.14l0,0,0,0Z"/><path class="cls-1" d="M108.35,77.19v0S108.37,77.21,108.35,77.19Z"/><path class="cls-1" d="M108.38,77.34l0-.1S108.32,77.28,108.38,77.34Z"/><path class="cls-1" d="M108.93,76.49l-.08-.06Z"/><path class="cls-1" d="M109.05,76.26c-.05,0-.27,0-.26.12l.06.05C108.75,76.31,109.16,76.4,109.05,76.26Z"/><path class="cls-1" d="M110.71,76l-.19.14c.11,0,.26.07.23.17C111.17,76.3,110.51,76.26,110.71,76Z"/><path class="cls-1" d="M111.22,75.57c0,.13.13.09.18.13C111.36,75.57,111.35,75.54,111.22,75.57Z"/><path class="cls-1" d="M114,71.46l.21.15C114.2,71.52,114.09,71.56,114,71.46Z"/><polygon class="cls-1" points="113.4 69.94 113.21 69.92 113.39 70.09 113.4 69.94"/><polygon class="cls-1" points="115.22 70.49 115.23 70.54 115.24 70.36 115.22 70.49"/><path class="cls-1" d="M119.76,63.54l-.28-.15C119.49,63.47,119.78,63.68,119.76,63.54Z"/><path class="cls-1" d="M121.48,60.39c.15.06.29,0,.2-.11C121.62,60.33,121.47,60.33,121.48,60.39Z"/><polygon class="cls-1" points="127.88 51.74 127.93 51.86 127.93 51.7 127.88 51.74"/><path class="cls-1" d="M138.92,40.84c.07,0,.26.11.25,0l-.29-.16Z"/><path class="cls-1" d="M139.64,40.72a1.61,1.61,0,0,0-.59-.47c.23.23.11.18.41.43,0,.07-.14,0-.25,0,.07.05-.11.06.07.17s.31,0,.17-.22A.65.65,0,0,1,139.64,40.72Z"/><path class="cls-1" d="M144.15,39.82l0,0A.07.07,0,0,0,144.15,39.82Z"/><path class="cls-1" d="M145.15,41.19s0,0-.06,0A.11.11,0,0,0,145.15,41.19Z"/><path class="cls-1" d="M144.69,41.19h0Z"/><path class="cls-1" d="M144.15,39.82l.06.11C144.23,39.82,144.18,39.84,144.15,39.82Z"/><path class="cls-1" d="M139.51,39.6a.19.19,0,0,0,0,.1.25.25,0,0,1,0-.06Z"/><path class="cls-1" d="M142.84,40h0l0,.13Z"/><path class="cls-1" d="M141.94,40.11a2.17,2.17,0,0,0,0-.39.44.44,0,0,1,0,.2Z"/><path class="cls-1" d="M140.47,40.26v0Z"/><path class="cls-1" d="M143.9,40.08v0Z"/><path class="cls-1" d="M143.63,37.31v0S143.64,37.31,143.63,37.31Z"/><polygon class="cls-1" points="145.07 38.63 145.05 38.64 145.03 38.8 145.07 38.63"/><path class="cls-1" d="M143.91,42.19h0Z"/><path class="cls-1" d="M137.35,46.35c.14.22,0,.34.15.58C137.46,46.83,137.51,46.47,137.35,46.35Z"/><path class="cls-1" d="M139.56,39.6l0,0S139.57,39.58,139.56,39.6Z"/><path class="cls-1" d="M137.5,46.93h0l0,0Z"/><path class="cls-1" d="M142.65,43.35l.1.08Z"/><path class="cls-1" d="M144,42.51h0Z"/><path class="cls-1" d="M142.29,44.18s-.06,0-.06,0l0,0S142.25,44.16,142.29,44.18Z"/><path class="cls-1" d="M141.62,44.7l0,0v0Z"/><path class="cls-1" d="M140.71,38.62a1.7,1.7,0,0,1,.17.19C140.76,38.65,140.85,38.51,140.71,38.62Z"/><path class="cls-1" d="M139.62,39.71c0-.05-.06-.09-.06-.11l0,0Z"/><path class="cls-1" d="M143.66,45.92l-.15.07A.3.3,0,0,0,143.66,45.92Z"/><path class="cls-1" d="M135.67,43.3v0S135.65,43.28,135.67,43.3Z"/><path class="cls-1" d="M143.17,46.31a.55.55,0,0,0-.19-.1l0,.07Z"/><path class="cls-1" d="M140.88,38.81h0Z"/><path class="cls-1" d="M141.51,37.72c-.15.06.09.36.15.56-.12.18-.2-.21-.34-.35-.06.14,0,.48-.06.51a.33.33,0,0,1-.08-.14c0,.32-.31.19-.24.58l-.06-.07a3.49,3.49,0,0,1,.28.42c-.05,0,0,.26-.13.07,0,0,0-.1,0-.17v.12c-.23-.26,0-.15-.12-.37-.06.17,0,.49-.17.46-.2-.27.14-.22-.14-.41l.2,0c-.39-.39.1,0-.3-.45-.24,0-.11.28-.34.31.07.18.17.22.23.41,0,.44-.68-.57-.6-.07.08.22.32.58.07.48l-.19-.34c-.19.09.24.51-.08.43-.06-.14,0-.2,0-.21-.29-.16.05.23,0,.29l-.22-.26c-.14.17-.17.51-.31.71-.05-.09-.09-.19-.2-.24-.12.32-.51.38-.86.43l.12.29s-.13-.07-.14-.13.12.14.16.26-.18-.07-.21-.16c0,.32,0,.77-.4.7l0-.09c-.2,0,.3.55,0,.47l0-.06c-.34.16-.39.63-.9.54.29.32-.37.14.06.54-.35,0-.4-.15-.73,0-.07,0,.22.32.21.43l-.24-.19.18.3-.33-.17v.12a.32.32,0,0,1,.22.08c0,.19-.37.14-.5,0l0,.42a.47.47,0,0,1-.14-.23c.15.33-.28-.16-.14.14.07,0,.14.12.19.15a.25.25,0,0,0-.31.26l-.16-.14a1.14,1.14,0,0,0-.21.37,5,5,0,0,1-.29.62c.18-.11.5.06.48.17l-.34-.06c.16.13.18-.07.35.14-.11.11-.42,0-.48-.12l0,.2c-.1,0-.14-.06-.25-.11.17.11-.49.28-.16.44h-.11a2.08,2.08,0,0,0,0,.93c.29,0,.22.09.45.12-.08.23-.24.56-.09.81s.23-.06.41-.07c-.22.14-.06.36-.28.34a1,1,0,0,0,.78.41c0-.1,0-.16.11-.21s.05.16,0,.25h0c.32,0,.41.2.59.43s.42.42.71.16l0,0a4.49,4.49,0,0,0,.47-.28c.18,0-.14.2,0,.35a.76.76,0,0,1,.6-.24.51.51,0,0,0,.49-.18c.4.67.64-.24,1,.13l-.07-.16c0-.19.11.07.17.09-.05-.13-.12-.13-.12-.23.46-.39,1.19-.18,1.81-.3.22-.06-.3-.88.13-.62l.08.33c.2-.55.79-.42,1-.93,0,.08.07.16,0,.18.21.16.29-.17.18-.33.07,0,.11.14.2.2s0-.38.19-.21a.12.12,0,0,1,0,.1c0-.13.25-.13,0-.32.2,0,.17-.28.37-.22-.12-.3.31,0,.06-.41.27.37.44.11.39-.11.06.13.16.06.25.23.09-.08.12-.21,0-.37.51.27,0-.6.58-.16a5,5,0,0,1,.34-1c.31.33-.2.27.14.6.08-.34-.09-.73.19-.85.1,0,.11.16.15.23.06-.33.41-.39.39-.74a.23.23,0,0,1,.06.12s.13,0,0-.17v.07c-.28-.13-.35-.55-.47-.66.4.44.27-.1.76.47a.4.4,0,0,0-.17-.22c.06,0,.13,0,.22.16,0-.21-.18-.29-.08-.42.08.06.09.11.17.2-.1-.19-.21-.37-.06-.43s.12.08.09.11c.12-.22,0-.59.3-.75.32.3-.3,0,.7.12V42h-.38c.09-.15-.2-.36,0-.45l.06.15,0-.3-.21.13c-.14-.18-.48-.09-.31-.23,0,0,0-.11.28-.17h0c-.1-.08-.22-.13-.11-.23s.41,0,.5,0c-.3-.05-.08-.36-.42-.37a.93.93,0,0,0,.31-.05h-.26a.33.33,0,0,1,.25-.14c0-.22-.43.2-.3-.09,0,0,.06,0,.1,0a.3.3,0,0,0-.08-.24c-.11-.12-.25-.19-.28-.34.26-.27.2.1.42-.13-.29-.28-.86-.2-1.08-.38l0,.06c-.33.43-.07-.32-.36-.15a.59.59,0,0,0,.14-.2c-.18-.15-.56,0-.84.12l.05-.13c-.09-.14-.26-.11-.36-.18,0,.13-.11.1-.09.3-.27-.81-.67.35-.94-.3,0,0,.09-.12.06-.12l-.27.12c0,.23,0,.14.09.32s-.1.24-.17.24c.11-.15,0-.37-.06-.5,0,.07,0,.15,0,.22-.15-.41,0,.46-.2.2V39c-.07.07-.12.23-.19.2-.05-.26.06-.13,0-.35-.11,0-.15.52-.28.27,0-.08.1-.09.13-.17-.14-.3-.15-.22-.23-.26h0l-.21-.11.06.08c0,.71-.26.18-.32.67.06-.46,0-.25-.1-.55-.07-.07-.17-.14-.17-.23,0,.26-.22-.13-.24.25,0-.09-.1,0-.17-.21-.09.12.09.15.12.27,0,.37-.6-.19-.62.36-.1.28.06.58,0,.82a.46.46,0,0,1-.18-.31c-.17,0-.23,0-.23.19a.45.45,0,0,0-.21-.17c0,.08.21.29,0,.27a1.8,1.8,0,0,1-.22-.34,3.82,3.82,0,0,0,.05.49c-.15-.08-.16-.21-.22-.32a.5.5,0,0,0,.12.55h.12s-.2-.11-.22-.17c-.11-.22.17-.07.25,0v.1c.49.29.1-.27.25-.37l.25.33-.14-.34c.1.06.26.22.26.31.2.09,0-.16.17,0a.11.11,0,0,1,0,.06v-.15c0,.08.19.22.12.21.25.11,0-.39.23-.16v0c.1-.23-.15-.27-.18-.67l.23.3.22.31-.12-.28s.07,0,.12.11c0-.22-.07-.11-.11-.31.21.21.24-.24.43.21,0-.23-.16-.13-.1-.32.2.48.1-.13.27.07s-.08.15.08.36c-.07-.46.2.05.25,0-.07-.36.31-.18.43-.32,0,.12.58.17.58.3V40c0-.37,0-.3.07-.38a.73.73,0,0,1-.15.41h0c0-.12,0-.18.09-.22l0,.27c.11,0,.24-.32.39-.12,0-.25-.09-.72.1-.88a1.08,1.08,0,0,1-.06.43s.06-.11.09-.05l-.08.23c.07.11.05-.19.11-.17,0,.2,0,.14,0,.3s0-.09-.07,0a.44.44,0,0,1,.14.31c0-.11,0-.26.07-.29s0,.24.08.35c0-.13.11,0,.14-.28,0,0,0,.14,0,.22.08-.12.3,0,.27-.32v0h0c.28-.26.36.22.54.14l0,.09c.14-.08.22,0,.42-.16,0,0-.05.18-.14.28.11,0,.21-.12.16.07s-.1.13-.15.06c0,.11-.13.22.17.09-.24.16-.26.25-.17.22l.14-.15c.06,0,.06,0,.06.09l-.34.18c-.08.07-.09.09-.05.09s.72-.05.14.14c.26,0,.18-.1.49-.14,0,.1-.59.22-.59.22-.21,0,.52.06.35.15.13,0,.47,0,.55.14-.09.1-.55,0-.63-.07s0,0,.08,0a.3.3,0,0,0-.22-.06l.12,0c-.14,0-.15.07-.34,0a.36.36,0,0,0,.26.06c-.2,0-.06.1-.2.1a.72.72,0,0,1,.18.09c-.19,0,.16.17.13.3-.2,0-.33-.27-.3-.07-.15,0-.27-.17-.32-.25.11.24-.27.11-.35.15l0-.11a.11.11,0,0,1,0,.12l.21.11c-.06,0-.08,0-.16,0,.1.13.33.21.45.41-.13,0,0,.22-.27,0,.2-.07-.26-.18-.21-.33,0,0,0,.07-.07.08a.12.12,0,0,1-.05-.06c-.32,0,.23.28.12.41-.12-.13-.29-.18-.27-.14s.25.16.31.3c-.18,0,0,.16-.05.2h.09c.12.13.06.16.05.26-.11-.09,0-.12-.09-.14.18.27-.38-.06-.3.17-.13,0-.25-.22-.34-.24.08.26-.28-.06-.23.17.2.14.16.09.26.32l0-.28.15.35c.05-.05,0-.21.06-.22.09.19.05.14.22.25-.33-.17,0,.29-.24.2l-.42-.41c-.3-.07,0,.43-.26.47l.12,0c.14.19-.08.12-.06.24a1.09,1.09,0,0,0-.32-.24c.1.11-.12.1.12.4l-.25-.13c-.2,0,.21.56,0,.62-.1-.2-.25-.26-.26-.45,0,0-.11,0,0,.15-.1-.07,0,.3-.12.19,0,.08.16.25.1.28a.4.4,0,0,1-.06-.08c.06.08,0,.17.18.3-.52-.37-.38.35-.82,0a1.09,1.09,0,0,1-.24.34c0-.05-.05-.08,0-.08-.23-.07.23.53,0,.46s0-.2-.13-.27c-.37-.53-.13.2-.44-.07v0c-.19-.14-.06.32-.22.36a.43.43,0,0,0,0-.09.83.83,0,0,1-.13.68c-.08-.25,0-.15-.15-.36,0,.06.22.36.13.48a1.43,1.43,0,0,1-.38-.4l.1-.07c-.22-.28-.13.09-.22.06l-.06-.14c-.14.13,0,.48-.17.55l.07.1c.06.4-.18-.16-.16.15l-.19-.35a1.88,1.88,0,0,1-.18.57,2.48,2.48,0,0,1,.05-.7.27.27,0,0,0-.17.32s0-.15.06-.11c0,.32,0,.51-.15.56-.26-.72-.43,0-.73-.56-.14.34-.5,0-.76.16.27.54-.08,0,.11.62-.06.06-.08.05-.1,0a1.39,1.39,0,0,1-.2-.32c0-.17,0-.14,0-.27a1.24,1.24,0,0,1-.08-.42c0,.22,0,.32,0,.24a2.14,2.14,0,0,0,0,.28c-.09.35,0-.52-.1-.18l0-.2a4.77,4.77,0,0,1-.27.52,1.9,1.9,0,0,1,.13-.3s-.11.1-.23.19-.25.14-.14,0l.15-.14s-.3.24-.17.1l.16-.14c-.05,0-.31.2-.23.11l.2-.12c.2-.18-.55.21-.71.11.55-.23.74-.33.83-.36l.08,0c.07,0-.43,0-.54-.18.28,0,.34,0,.39,0l.07,0s.12-.08.2-.09a.56.56,0,0,1-.29-.26c.11,0-.15-.32.17-.08h0c.35.19.34,0,.41-.05l-.42-.32c.77.24.2-.74.83-.43-.06-.13,0-.19-.07-.33l.22.18a.6.6,0,0,0,.34-.35l.12.17c.09-.08-.52-.65-.45-.75l.34.25c.14-.17.56-.08.43-.49,0,0,.13.13.11.17s.47-.08,0-.46c.27.26.18-.13.15-.34l.18.21c-.18-.32-.24-.4-.21-.57,0,0,.17.14.09.12.18,0-.12-.25.08-.24l.08.16c.1-.06,0-.13-.07-.32s.21-.1.39.08c-.09-.12-.18-.32-.08-.31a.35.35,0,0,1,.1.16c.27,0,0-.43.28-.31a.53.53,0,0,0,.12.11c-.12.09-.22.16-.23.14.17.19.29.15.45.48-.06-.21-.2-.64,0-.62l.07.06v0s0,0,0-.08.09,0,.12,0c.14.16.18,0,.23,0-.18-.22-.09-.23-.29-.37,0,0,0,0,0,.07a.06.06,0,0,0,0,0v0l-.11.11c-.05-.14-.09-.27.06-.19l-.21-.41c.31.26.57.32.73.5.05-.23.28-.34.07-.84,0-.09.14.09.2.15s0,.08,0,.15c0-.17.22-.22,0-.54.2.06.13.32.24.17l0,.11c.6.31,0-1.12.73-.65a.26.26,0,0,1-.1-.09c.53.09.72-.7,1.31-.33.14.07.09-.16.11-.35l.1.29,0-.37c.14-.29.44.66.57.16l-.05-.2c.08,0,.25-.14.25.09,0,0,0-.21.05-.11v.16l.19-.28c.15.11,0,.62.18.66A1.23,1.23,0,0,0,145,39s-.08-.1-.07-.26l.09-.08c0-.46.19-.93-.05-1.27l-.19.28-.05-.23h.15c-.08-.22-.15,0-.2.1a.49.49,0,0,0-.08-.25l-.17.45c0-.18.07-.36-.06-.46-.07.21.1.4,0,.55-.09-.2-.08-.38-.17-.19a.32.32,0,0,1,0-.25c-.08.15-.23.08-.25.33-.12-.25-.28.11-.34-.33,0,.11-.09.37-.16.4,0-.55-.3,0-.39-.52,0,.48-.33.31-.43.62,0,0,0-.12,0-.1s-.19-.13-.28-.19c.12.37,0,.51,0,.77-.25-.3-.1-.46-.27-.78.12.29-.09.38.05.61a1,1,0,0,1-.3-.35c.18.46-.05.11,0,.42-.23-.16-.23-.4-.3-.2C141.46,37.93,141.51,37.72,141.51,37.72Zm-2.45,2.63h0l0-.06Zm-.21.18.1-.07c.07.07.13.15.1.17S138.93,40.56,138.85,40.53Zm1.67,1.15c0,.06-.05,0-.09,0l0-.07,0,0Z"/><path class="cls-1" d="M140.34,41.34s0,0,0,0l-.06,0,0,.08Z"/><path class="cls-1" d="M144.12,39.77h0a.16.16,0,0,1,0,0Z"/><polygon class="cls-1" points="135.75 42.97 135.81 43.01 135.78 42.95 135.75 42.97"/><path class="cls-1" d="M142.68,38.7a.19.19,0,0,0,0-.07A.27.27,0,0,0,142.68,38.7Z"/><path class="cls-1" d="M142,38.7l-.12-.08A.45.45,0,0,0,142,38.7Z"/><path class="cls-1" d="M141.39,38.67l0,.12h0Z"/><path class="cls-1" d="M145.46,43.71a0,0,0,0,0,0,0C145.47,43.8,145.48,43.76,145.46,43.71Z"/><path class="cls-1" d="M146.33,41.09a.43.43,0,0,1,.11.1C146.48,41.14,146.49,41.1,146.33,41.09Z"/><polygon class="cls-1" points="143.68 45.91 143.68 45.91 143.66 45.92 143.68 45.91"/><path class="cls-1" d="M146.4,41.33c.07,0,.07-.09,0-.14S146.37,41.28,146.4,41.33Z"/><path class="cls-1" d="M139.11,40l0,0,0,0Z"/><path class="cls-1" d="M139.12,40.08v0S139.14,40.1,139.12,40.08Z"/><path class="cls-1" d="M139.14,40.22l0-.1S139.08,40.17,139.14,40.22Z"/><path class="cls-1" d="M139.78,39.49l-.06-.08Z"/><path class="cls-1" d="M140,39.31c-.06,0-.26-.08-.28,0l0,.07C139.66,39.26,140,39.48,140,39.31Z"/><path class="cls-1" d="M141.32,40l-.16,0c.07.09.15.21.11.26C141.55,40.45,141.13,40,141.32,40Z"/><path class="cls-1" d="M141.78,40c-.06.07,0,.15,0,.21C141.85,40.11,141.86,40.08,141.78,40Z"/><path class="cls-1" d="M144.84,40.17l-.18.21C144.71,40.37,144.73,40.3,144.84,40.17Z"/><polygon class="cls-1" points="146.41 39.77 146.5 39.62 146.28 39.7 146.41 39.77"/><polygon class="cls-1" points="144.69 40.84 144.65 40.84 144.75 40.85 144.69 40.84"/><path class="cls-1" d="M141.59,44.41l.2.24C141.8,44.58,141.59,44.29,141.59,44.41Z"/><path class="cls-1" d="M139.59,46c-.09-.13-.2-.19-.17,0C139.48,45.94,139.58,46,139.59,46Z"/><polygon class="cls-1" points="137.34 45.06 137.39 45.16 137.38 45.03 137.34 45.06"/><path class="cls-1" d="M152.38,31.51c.05.07.19.21.19.16l-.21-.25Z"/><path class="cls-1" d="M153,31.81a2.65,2.65,0,0,0-.46-.59c.18.26.09.17.31.48,0,0-.11,0-.19-.13,0,.07-.09,0,0,.14s.25.13.15-.06A1.14,1.14,0,0,1,153,31.81Z"/><path class="cls-1" d="M155.7,30.87l0,0Z"/><path class="cls-1" d="M153.66,30.54s0,0,0-.07A.11.11,0,0,0,153.66,30.54Z"/><path class="cls-1" d="M153.23,30.32h0S153.23,30.29,153.23,30.32Z"/><path class="cls-1" d="M155.7,30.87l0,0-.33-.94-.06,0c0,.08,0,.07.07.07l.31.89Z"/><path class="cls-1" d="M152.77,30.92a.25.25,0,0,0,0,.09.18.18,0,0,1,0,0Z"/><path class="cls-1" d="M155.09,31.37h0l0,.13Z"/><path class="cls-1" d="M154.62,31.65a3.32,3.32,0,0,0-.17-.36.65.65,0,0,1,.07.18Z"/><path class="cls-1" d="M153.59,31.73v0Z"/><path class="cls-1" d="M155.48,31.28l0,.09Z"/><path class="cls-1" d="M139.72,37.09v0S139.72,37.09,139.72,37.09Z"/><polygon class="cls-1" points="138.7 35.9 138.71 35.88 138.67 35.73 138.7 35.9"/><path class="cls-1" d="M152.57,30.2h0S152.57,30.18,152.57,30.2Z"/><path class="cls-1" d="M147.75,32.21c.14.22,0,.34.19.57C147.89,32.68,147.87,32.34,147.75,32.21Z"/><path class="cls-1" d="M152.81,30.94l0,0S152.81,30.92,152.81,30.94Z"/><path class="cls-1" d="M147.94,32.78h0l0,0Z"/><path class="cls-1" d="M151.42,30.84l.06.11Z"/><path class="cls-1" d="M152.47,30.85l0,0Z"/><path class="cls-1" d="M151.08,31.39s0-.05,0,0l0,0S151.05,31.35,151.08,31.39Z"/><path class="cls-1" d="M150.59,31.58l0,0v0Z"/><path class="cls-1" d="M141.29,36.57c0-.07-.06-.16-.09-.24C141.26,36.52,141.2,36.61,141.29,36.57Z"/><path class="cls-1" d="M152.87,31a.32.32,0,0,1-.06-.11v0Z"/><path class="cls-1" d="M151.85,33.47h-.1A.12.12,0,0,0,151.85,33.47Z"/><path class="cls-1" d="M145,35.5v0S145,35.53,145,35.5Z"/><path class="cls-1" d="M151.53,33.59a.79.79,0,0,0-.11-.16l0,.07Z"/><path class="cls-1" d="M140.9,36.33h0Z"/><path class="cls-1" d="M140.82,37.11c.08,0,0-.36-.08-.57s.11.25.19.43c0-.11,0-.45,0-.45a.6.6,0,0,1,0,.15c0-.3.18-.06.16-.44l0,.09c-.06-.18-.11-.36-.14-.49s0-.24.08,0c0,0,0,.09,0,.17v-.11c.12.33,0,.13,0,.38,0-.13.06-.43.14-.35.1.33-.1.14,0,.42l-.12-.1c.2.5-.06,0,.14.52.14.07.08-.2.22-.13,0-.19-.08-.27-.1-.46.08-.37.34.79.35.33,0-.23-.12-.65,0-.45l.07.38c.12,0-.08-.55.1-.33,0,.15-.05.15,0,.19.15.27,0-.22.05-.24l.1.33c.1-.08.17-.36.28-.45a.84.84,0,0,0,.08.3c.12-.21.36-.05.57.1l0-.3a.35.35,0,0,1,.06.18c.09.09,0-.18,0-.3s.09.15.09.24c0-.27.16-.6.36-.33v.09c.12.09-.06-.61.09-.37v.05c.23.07.36-.25.63.13-.09-.41.24.13.09-.44.19.25.19.36.4.5,0,0,0-.37,0-.45l.09.3,0-.33.14.34,0-.09a.5.5,0,0,1-.1-.21c0-.16.24.15.29.3l.1-.3a.7.7,0,0,1,0,.25c0-.33.11.31.11,0a1.41,1.41,0,0,1-.06-.24c.1.17.19.14.24,0l0,.21c.15,0,.24-.18.39-.22a.86.86,0,0,1-.15-.48l.11.31c0-.2-.08-.1-.1-.36.07,0,.15.34.15.45l0-.13c0,.09,0,.15.07.27,0-.2.21.28.15-.07l0,.09c.15,0,.18-.17.29-.22-.08-.27,0-.22-.05-.45.11.06.28.24.37.18s-.05-.23-.07-.4c.08.24.18.19.18.38.11-.08.15-.1.24-.35,0-.09-.31-.13-.32-.22s-.09.08-.09.2v0c1-.42,1,.57,1,0v0l.09-.31c.08,0,0,.2.14.33,0-.46.28,0,.32-.34.34.68.34-.17.64.24l-.06-.17c0-.18.08.08.12.11,0-.13-.09-.14-.1-.24.23-.31.7,0,1.06.07.13,0-.25-.89,0-.54l.07.33c.09-.45.46-.15.57-.55,0,.08,0,.17,0,.18.13.21.18-.05.11-.24,0,0,.07.16.12.25s0-.33.12-.12a.18.18,0,0,1,0,.1c0-.12.15,0,0-.27.13.09.11-.17.24,0-.07-.31.19.09.05-.33.15.43.27.29.25.07,0,.13.1.12.14.3.06,0,.08-.13,0-.34.3.46.06-.49.37.13a2.14,2.14,0,0,1,.31-.67c.16.42-.16.11,0,.55.08-.23,0-.62.21-.58s.05.19.07.27c.08-.23.3-.08.34-.36a.34.34,0,0,1,0,.12s.09,0,0-.15v.06a3,3,0,0,1-.18-.77c.17.56.18.09.39.8a.67.67,0,0,0-.07-.27s.08.1.11.25c.05-.14-.06-.33,0-.36s0,.13.07.25c0-.2-.06-.39,0-.34s.06.13,0,.13,0-.56.22-.44c.12.42.1.11.25.46l0-.13-.1-.16c.07,0,0-.29.12-.2v.16l.09-.11-.12-.1c0-.2-.35-.43-.23-.37s0,0,0,.17h0c0-.12.13-.25.21-.18l.27.45c-.09-.3.15-.14.06-.46a1.76,1.76,0,0,0,.13.29l-.06-.24a.57.57,0,0,1,.14.24c.11,0-.21-.42,0-.28a.59.59,0,0,1,0,.1c.15.06.14-.23.28-.16.18.33,0,.12.11.4.11-.12.11-.54.27-.51l0,0c-.19-.49.2.2.17-.06a1.13,1.13,0,0,0,.08.22c.12,0,.13-.2.2-.41l0,.13a.15.15,0,0,0,.08,0l-.42-1.19c-.06,0-.12,0-.18,0,0,.14,0,.13.06.31-.44-.67-.23.51-.62,0,0,0,0-.13,0-.12l-.1.18a1.3,1.3,0,0,0,.17.27c0,.13,0,.25,0,.26a.85.85,0,0,0-.23-.45c0,.06.05.14.09.2-.24-.34.18.43,0,.22l0-.11c0,.07,0,.23,0,.22-.13-.23,0-.13-.11-.33-.05,0,.11.51-.05.29,0-.08,0-.1,0-.17-.19-.25-.17-.18-.23-.2h0l-.16-.08.06.06c.26.65-.08.19,0,.64-.13-.42-.11-.23-.25-.49a.64.64,0,0,1-.18-.2c.08.24-.18-.12-.06.22-.05-.08-.05,0-.17-.19,0,.1.1.14.16.24.09.33-.43-.21-.3.26,0,.23.18.51.19.7a.76.76,0,0,1-.19-.3c-.14-.08-.16,0-.14.1a.83.83,0,0,0-.18-.2c0,.05.2.3.06.22a3.68,3.68,0,0,1-.21-.34c0,.11.08.28.1.39a1,1,0,0,1-.19-.32.55.55,0,0,0,.13.45l.09,0s-.16-.17-.18-.21.12,0,.19.09v.07c.4.41.06-.17.15-.2l.23.35-.15-.32a1,1,0,0,1,.24.32c.17.13-.05-.15.12,0a.17.17,0,0,1,0,.06l0-.13c0,.08.18.23.12.2.21.14-.06-.34.15-.11v0c0-.19-.17-.26-.29-.61l.48.59-.16-.26s.05,0,.11.11c-.07-.2-.08-.11-.16-.29.21.2.09-.21.35.2-.1-.21-.15-.12-.17-.29.29.44,0-.12.2.06s0,.15.17.33c-.2-.41.15,0,.14-.07-.17-.32,0-.18,0-.33.05.11.23.11.35.2l0,.06c-.14-.34,0-.31,0-.4a1.38,1.38,0,0,1,.12.39l0,0a.4.4,0,0,1,0-.23l.09.26c.05,0,0-.35.16-.21-.08-.24-.32-.64-.28-.84a1.81,1.81,0,0,1,.13.41s0-.12,0-.07l0,.23c.07.08,0-.19,0-.18.07.19.07.12.12.27s-.05-.07,0,0a.55.55,0,0,1,.19.25.71.71,0,0,1-.07-.28c.06,0,.1.22.17.3,0-.14.06,0,0-.3,0,0,.06.13.09.2,0-.13.15-.08,0-.37v0h0a.26.26,0,0,1,0-.08l-.21-.59c-.06.16-.31-.11-.37,0l0-.09c0,.13-.13.13-.1.35,0,0-.12-.14-.16-.26,0,.09,0,.2-.13.08s-.08-.13,0-.14c-.1,0-.18-.19-.15.09-.07-.24-.18-.27-.18-.19l.12.15s-.06,0-.11,0l-.11-.31c-.3-.31,0,.74-.36.16.05.23.14.12.21.38-.08,0-.34-.43-.36-.42s.1.48,0,.41a1.14,1.14,0,0,1,.16.52c-.08,0-.27-.43-.27-.53s0,0,0,.05a.27.27,0,0,0-.06-.22l0,.11c-.08-.1-.16,0-.22-.24a.24.24,0,0,0,.11.23c-.15-.12-.13,0-.26,0,0,.05.1.18.09.18-.18-.08,0,.23,0,.32-.12-.15-.15-.41-.18-.23a.71.71,0,0,1-.15-.39c0,.24-.2-.08-.27-.1V30c0,.06,0,.07,0,.08l.11.21a.17.17,0,0,1-.1-.11,5.17,5.17,0,0,1,.2.58c-.08-.1-.05.16-.18-.13.14.06-.13-.29-.06-.37s0,0-.06,0a.18.18,0,0,1,0-.08c-.2-.22.09.35,0,.38-.05-.17-.15-.3-.15-.26s.13.27.14.41c-.12-.1,0,.12-.07.12l.06,0c.05.17,0,.16,0,.23-.06-.13,0-.11,0-.16.06.31-.23-.25-.23,0-.08-.1-.13-.31-.18-.37,0,.25-.18-.19-.19,0a.66.66,0,0,1,.12.4l.08-.21,0,.36s0-.17.07-.15a.57.57,0,0,0,.1.32c-.19-.31,0,.24-.19,0l-.21-.55c-.19-.21-.06.35-.25.26l.08.08c.07.23-.07.06-.07.17a1.65,1.65,0,0,0-.18-.35c.05.14-.1,0,0,.4l-.15-.22c-.14-.06.08.57,0,.55,0-.21-.14-.33-.13-.49,0,0-.08,0,0,.12-.06-.11,0,.28-.1.12,0,.09.09.28,0,.28a.64.64,0,0,1,0-.09c0,.09,0,.15.1.34-.32-.54-.27.15-.55-.31a.65.65,0,0,1-.18.22c0-.06,0-.09,0-.08-.16-.14.14.55,0,.4s0-.18-.08-.28c-.24-.6-.09.13-.3-.2v0c-.13-.19,0,.28-.15.27a.7.7,0,0,0,0-.09.87.87,0,0,1-.08.59,1.15,1.15,0,0,0-.11-.38s.15.39.1.48a2.3,2.3,0,0,1-.27-.47l.07,0c-.16-.32-.09,0-.15,0l0-.15c-.09.09,0,.46-.09.47l.05.11c.07.39-.13-.19-.09.11l-.15-.37a2.1,2.1,0,0,1-.07.51,2.88,2.88,0,0,1,0-.65s-.13.08-.09.27c0,0,0-.14,0-.09.05.31,0,.48-.05.5-.24-.73-.28-.11-.54-.65-.06.32-.33,0-.49.09.25.54,0,0,.16.61,0,.05,0,0-.06,0l-.24-.3c-.09-.16,0-.14-.05-.27s-.12-.23-.23-.37c.08.2.07.31,0,.24l.16.24c0,.35-.27-.45-.29-.1l0-.2c0,.13-.24.07-.14.56a.64.64,0,0,1-.09-.27c-.17,0-.18.61-.39.36l0-.15c0,.05,0,.28,0,.15s0-.15-.05-.15,0,.27-.06.2l0-.17c-.21-.14-.1.46-.2.6-.13-.42-.29-.52-.37-.57l0-.06c-.19,0-.19.44-.3.65-.24-.43-.4-.09-.64-.29a.87.87,0,0,1,.08.38c-.06-.07,0,.32-.13-.06h0c-.14-.37-.19-.25-.25-.24l.14.51c-.38-.69-.34.39-.62-.24,0,.14,0,.15,0,.29l-.08-.27c-.13,0-.19-.06-.3,0l0-.2c-.08,0,.13.81.07.85l-.14-.4c-.13,0-.36-.28-.38.13a.53.53,0,0,1,0-.2c-.06,0-.31-.21-.13.34-.1-.36-.14,0-.17.18l-.06-.27c0,.36.06.45,0,.57s-.08-.21,0-.15c-.1-.12,0,.27-.1.15l0-.18c-.07,0,0,.09,0,.3s-.15,0-.22-.27c0,.15,0,.36,0,.3a.55.55,0,0,1,0-.18c-.16-.15-.08.36-.23.12a.84.84,0,0,0-.06-.16c.09,0,.17,0,.17,0a2.3,2.3,0,0,1-.19-.63c0,.2,0,.64-.13.54s-.06,0-.06-.08v0s0,0,0,.05,0-.06-.06-.06c-.06-.2-.11-.09-.14-.09.08.27,0,.24.12.45,0,0,0,0,0-.05a.06.06,0,0,0,0,0v0l.09,0c0,.15,0,.27-.07.13l.07.45c-.15-.36-.3-.55-.37-.78-.07.18-.23.17-.17.7,0,.07-.07-.14-.11-.21s0-.05,0-.13c0,.15-.17.1-.1.46-.12-.14,0-.34-.13-.25v-.11c-.36-.52-.12,1-.54.33a.36.36,0,0,1,.06.12c-.35-.26-.49.44-.88,0-.1-.08.13.15.12.33l.09-.29v.36c0,.27-.55-.68-.58-.17l0,.19c-.06,0-.18.16-.23-.07,0,0,0,.21,0,.11l0-.15-.07.29c-.12-.09-.13-.61-.28-.61a1.37,1.37,0,0,0,0,.58s.08.08.11.24l0,.09a3.77,3.77,0,0,0,.36,1.22l0-.3.08.21-.07,0c.09.2.07,0,.07-.12a1,1,0,0,0,.09.23l0-.45c.05.18,0,.36.12.45,0-.21-.13-.39-.1-.54.09.2.12.37.12.18a.63.63,0,0,1,0,.25c0-.15.1-.09.06-.33.1.24.13-.1.22.33a.93.93,0,0,1,0-.38c.05.53.15,0,.27.55-.06-.47.14-.25.17-.53,0,0,0,.11,0,.09s.11.16.17.24a2.75,2.75,0,0,1,0-.74c.15.35.07.46.18.8-.08-.31,0-.34,0-.59a1.69,1.69,0,0,1,.17.41c-.11-.48,0-.09,0-.39.13.22.13.44.17.28A.6.6,0,0,1,140.82,37.11Zm1.64-1.3h0l0,0Zm.15,0h-.07c0-.09-.05-.19,0-.19S142.57,35.69,142.61,35.77ZM141.78,34s0,0,.05.06l0,0v0Z"/><path class="cls-1" d="M141.83,34.34v0l0,.06v-.09Z"/><path class="cls-1" d="M155.66,30.83h0l0,0Z"/><polygon class="cls-1" points="144.89 35.68 144.87 35.61 144.87 35.68 144.89 35.68"/><path class="cls-1" d="M154.51,30.22l0-.06Z"/><path class="cls-1" d="M154.11,30.34l-.1-.06Z"/><path class="cls-1" d="M153.76,30.37l.05.11h0Z"/><path class="cls-1" d="M153.19,32.59v0C153.18,32.67,153.19,32.64,153.19,32.59Z"/><path class="cls-1" d="M154.22,31.46a1,1,0,0,1,0,.14S154.28,31.61,154.22,31.46Z"/><polygon class="cls-1" points="151.86 33.47 151.86 33.47 151.85 33.47 151.86 33.47"/><path class="cls-1" d="M154.17,31.62s.06,0,.06,0S154.17,31.57,154.17,31.62Z"/><path class="cls-1" d="M152.53,31.09h0l0,0Z"/><path class="cls-1" d="M152.54,31.12v0S152.56,31.15,152.54,31.12Z"/><path class="cls-1" d="M152.57,31.24l0-.08S152.52,31.17,152.57,31.24Z"/><path class="cls-1" d="M152.95,30.91l-.06-.08Z"/><path class="cls-1" d="M153,30.81s-.19-.13-.19,0l0,.07C152.81,30.69,153.11,31,153,30.81Z"/><path class="cls-1" d="M154.15,31.57l-.12,0c.07.08.17.19.15.24C154.45,32,154,31.6,154.15,31.57Z"/><path class="cls-1" d="M154.47,31.57c0,.07.08.14.11.19A.26.26,0,0,0,154.47,31.57Z"/><path class="cls-1" d="M154.74,30.08l-.1-.24S154.69,29.94,154.74,30.08Z"/><polygon class="cls-1" points="154.88 31.47 154.97 31.6 154.9 31.37 154.88 31.47"/><polygon class="cls-1" points="153.94 29.88 153.94 29.84 153.92 29.95 153.94 29.88"/><path class="cls-1" d="M150.59,31.31l.12.29C150.72,31.54,150.6,31.21,150.59,31.31Z"/><path class="cls-1" d="M149.22,32.16c-.07-.14-.14-.22-.12-.07S149.22,32.2,149.22,32.16Z"/><polygon class="cls-1" points="144.57 33.14 144.57 33.03 144.54 33.13 144.57 33.14"/><path class="cls-1" d="M239.28,26.92c.17-.14,0-.3-.53-.09l-.29.44Z"/><path class="cls-1" d="M235.45,27.48c-.59.35-1.25.85-.74,1,.54-.5.73-.42,1.3-1,.53-.21,1-.19.92,0,.17-.14.87-.19,1.1-.48a5.06,5.06,0,0,0-2.56.74C235.25,27.69,235.42,27.55,235.45,27.48Z"/><path class="cls-1" d="M182.18,43.68l.35-.08A2.13,2.13,0,0,0,182.18,43.68Z"/><path class="cls-1" d="M150.3,57c.22-.15.3-.23.3-.26C150.39,56.89,150.23,57,150.3,57Z"/><path class="cls-1" d="M145.17,60.11l.3-.2A.81.81,0,0,0,145.17,60.11Z"/><path class="cls-1" d="M182.18,43.68l-.91.2C181.24,44,181.74,43.8,182.18,43.68Z"/><path class="cls-1" d="M228.36,30.53a2.69,2.69,0,0,0,.45-.23l-.44.17A.26.26,0,0,1,228.36,30.53Z"/><path class="cls-1" d="M196.58,38.79l.27-.08a1.44,1.44,0,0,0,.18-.2Z"/><path class="cls-1" d="M207.71,35.26c-.26.07-.26.36-.32.51a1.08,1.08,0,0,1,.49-.36C207.87,35.36,207.82,35.31,207.71,35.26Z"/><path class="cls-1" d="M225.52,30.22l.3-.13Z"/><path class="cls-1" d="M188.59,41.23a.23.23,0,0,0-.13-.06S188.52,41.22,188.59,41.23Z"/><path class="cls-1" d="M164.82,12.79s0,0,0,0S164.87,12.72,164.82,12.79Z"/><path class="cls-1" d="M172.39,1.6l-.07.18a.46.46,0,0,0,.13.1Z"/><path class="cls-1" d="M137.56,68.54l0-.05C137.67,68.16,137.61,68.34,137.56,68.54Z"/><path class="cls-1" d="M185.5,35.92c1.1-.09-1.56.83.06.61C185.4,36.48,186.8,35.63,185.5,35.92Z"/><path class="cls-1" d="M228.06,30.58l-.46.15A3.52,3.52,0,0,0,228.06,30.58Z"/><path class="cls-1" d="M185.56,36.53h0l.17,0Z"/><path class="cls-1" d="M156.92,81.75a.81.81,0,0,0-.27-.12S156.72,81.7,156.92,81.75Z"/><path class="cls-1" d="M139.23,75.44s.28.43.28.42Z"/><path class="cls-1" d="M166.54,79.66a2.51,2.51,0,0,0,.66-.18h-.11A1.26,1.26,0,0,1,166.54,79.66Z"/><path class="cls-1" d="M175.86,75.66l-.19,0-.27.17Z"/><path class="cls-1" d="M146.55,36.73a1.51,1.51,0,0,1,.49-.17C146.79,36.54,147.71,35.4,146.55,36.73Z"/><path class="cls-1" d="M228.3,30.38a.4.4,0,0,1-.25.2l.31-.11S228.38,30.38,228.3,30.38Z"/><path class="cls-1" d="M166.27,77.43s.37-.09.74-.22l.73-.24C167.32,77.09,166.79,77.29,166.27,77.43Z"/><path class="cls-1" d="M160.45,43l-.34.16A1.11,1.11,0,0,0,160.45,43Z"/><path class="cls-1" d="M171.95,75.2a3.25,3.25,0,0,0,.87-.21.71.71,0,0,0,.13-.15l-.5.18C172.2,75.12,171.95,75.2,171.95,75.2Z"/><path class="cls-1" d="M147,36.19h0Z"/><path class="cls-1" d="M153.32,28.23c-1,1.16-.17.78-.2,1.16-1.08,1.44-.75.46-1.28.81-.65.92-.94,1.8-1.5,2.42-.09,0-.21.12-.14-.08-.56,1.09-2.3,2.67-3,3.94a.42.42,0,0,1-.19.07.47.47,0,0,1,.52.18c-.45.51-.67,1.09-1,1.12a1.07,1.07,0,0,0,.31-.59l-.4.6c-.68.24.56-.8.37-1a26.45,26.45,0,0,1-2.51,3.2c-.4-.07,1.59-1.9.41-1.07l1.2-1.12c-1.24.57.69-.71-.5-.24-1.53,1.52-1.5,1.9-3,3.41-.19.48.31.07.12.56-1.84,2.47-2.27,1.18-3.48,3.12a3.07,3.07,0,0,1-1.35,2l.1-.66c-1.47,1.49-.43,1.24-2.13,2.65.16-.39,1-1.28.79-1.08-1,.71-.68.85-1.06,1.39l1.28,1.23a2.26,2.26,0,0,1,.23-.27l.4.08a47.11,47.11,0,0,1,5-4.88c0,.16-.31.49.2.24a30.23,30.23,0,0,1,8.14-4.69l.44-.37.45-.37c.24-.11.49-.08.26.09,1.08-.37,0-.19.43-.53s.86-.18.51.06A24.73,24.73,0,0,1,156.3,38l.18-.07.12,0,.23-.09.46-.13c.29-.07.51-.08.55,0l-.3.17a.26.26,0,0,0,.13,0c.16-.08.16,0,.25,0a.7.7,0,0,1,.24,0c.13,0,.11.27-.29.61v-.11c-.14.2-.29.36-.43.53l-.22.25-.43.44a17.83,17.83,0,0,1-2,1.74,17.29,17.29,0,0,1-4.21,2.35c-.12.31-.92.7-1.69,1.08l1.43.66c-.29.06-.26,0-.07.09l.07,0s0,0,0,0v0l.07-.08c.12-.12.29-.25.28-.41a11.45,11.45,0,0,1,1.79,0,15.12,15.12,0,0,0,2.63-.22c.81-.15,1.1-.62,2-.94l.1.29.61-.34.6-.35.8.13.87-.38c-.36.11-.8.12-.77,0a11.63,11.63,0,0,1,3.52-.95s.78-.41,1.53-.85,1.49-.91,1.49-.91c0,.15-.51.45-.88.74,1.51-1.14.46.14,1.82-.94-.23.05,0-.22,0-.3a6.53,6.53,0,0,0,.84-.36l1.12-.56L168.05,38a1.45,1.45,0,0,0-.9-.63,1.53,1.53,0,0,0-1,.12,1.75,1.75,0,0,0-.87.94,1.62,1.62,0,0,0-.1.82,1.54,1.54,0,0,0,.14.48l0,.06,0,.08v0l.06.08a1.94,1.94,0,0,0,.93.7,3.35,3.35,0,0,0,1.24.17l.83,0-.28.21a35.84,35.84,0,0,0,8.34-.94c-1,.11-.87-.3-.06-.5l.4.24c.49-.32-.89.07.15-.41,1.05-.21.8.19.21.44l.63-.21.62-.22c.1.07-.19.2-.23.34a11.21,11.21,0,0,1,1.54-.46,3.13,3.13,0,0,0,1.63-1l.13,0A4.29,4.29,0,0,0,183.18,36a3.37,3.37,0,0,0-.4-2.58A3.48,3.48,0,0,0,181,32a5.72,5.72,0,0,0-2.06-.32c-.05.27-1.15.26-1.85.73a10.06,10.06,0,0,0-2.76,1.12A5.36,5.36,0,0,0,172,36.26c-.22.9-.11,1.05-.07,1.07s.13-.08.18.31c-.14,0-.23.71-.17,1.23s.13.85-.15.18a4,4,0,0,0,1,1.93,4,4,0,0,0,1.52,1,6.44,6.44,0,0,0,3.91-.11c-.38,0-.79,0-.59-.12.59-.14,1.34-.21,1.29-.06l-.14.07c1.69-.65,3.68-1.25,5.51-2.11a11.45,11.45,0,0,0,4.34-3.16l-.1.13c.48-.53.92-1.09,1.34-1.65l1.48-2-2.26.27a7.54,7.54,0,0,0-1,.18c-1.52.27.88-.37-.28-.3a10,10,0,0,0-3.11,1.68,7.09,7.09,0,0,0-1.94,2.3l-1.1,2.15,2.37-.5a9.56,9.56,0,0,0,1.89-.6,6.64,6.64,0,0,0,2.87-.79c.27-.13.55-.28.83-.44l.42-.25.09-.06h0l0,0,.25-.23s0,.08,0,.13l0,.21a1.35,1.35,0,0,1,0,.26,1.88,1.88,0,0,0,0,.28l0,.34.14-.19c.31.63.08.83.13,1.32.12-.1,0-.75.19-.36a38.25,38.25,0,0,1,1.17,8.64A26.3,26.3,0,0,1,191,55.37c-.68,1.9.57,1.44-.89,3.68l0-.4v-.41A18.74,18.74,0,0,1,187,63.76a62.19,62.19,0,0,1-4.27,4.74c.13-.22.07-.3.37-.57a8.81,8.81,0,0,0-2.38,2.25c-.53.38-.23,0-.61.12-.78.42-1.62,1.56-2.16,1.61-.09,0,.16-.2.29-.31C177.83,72,176,73,176.57,73a37,37,0,0,1-3.76,2c-.6.66-2.5,1-2.57,1.5,0-.23-.71-.06-1.48.25a14.86,14.86,0,0,0-2.1.93c.28-.23-.87.11-.55-.18-1.07.35-2.05.68-1.81.85-2.12,0-4,1.26-5.3.72a27.46,27.46,0,0,1-9.41.09c.1-.21.92-.08,1.71,0s1.56.14,1.52-.1a35.91,35.91,0,0,1-3.65-.24c-.55-.09-1.11-.17-1.69-.32a18.69,18.69,0,0,1-1.83-.63c-.64-.32.45,0,.71,0a11.56,11.56,0,0,1-6.18-4.18s.21.17.36.34c-.27-.36-.44-.91-.61-.78l.25.36c0,.38-.32.09-.68-.38s-.61-1.15-.69-1.18c.37.35.26-.25.3-.77s.17-1,.51-.35c0-.28-.07-.65-.22-.61.11-.43.23-.54.29-.09.09-.77.14-1,.15-1.3a2.71,2.71,0,0,1,.43-1.18c.08.05,0,.35,0,.54a5,5,0,0,1,1.38-2.57c0,.1.15,0-.11.34.72-.9,1.34-1.7,2.06-2.48a13.55,13.55,0,0,1,2.58-2.3c-.35.81.8-.43,1.14-.22l1.08-.92-.57.18a21.76,21.76,0,0,1,2.75-2l-.7.63,1-.66,1-.64-1.2.57c1-.82-.37-.34,1.12-1.11a13.38,13.38,0,0,1,1.77-.75h0a6.28,6.28,0,0,1,1.86-1.17c.27,0,0,.45.19.45.4-.56,2.58-1.39,3.14-2-.2.18-.13.36,0,.36l.36-.45c.56-.17.66-.17.64,0,1.61-.69-.71-.21,1.27-.87-.14.09-.05.09-.35.26,1.94-.76,3.63-1.77,5.45-2.38.67.13-1.51.72-.79.77,2.52-1.12,5.14-2.55,7.69-3.39l-.48.13c.16-.63,2-.44,3.15-1.13-.3.15-.31.42-.25.34,1.75-.54,3.49-1.37,6.07-2.42l-.28.24c1.06-.23,2.72-.84,3.85-1.15.29-.24.93-.42.48-.49,3.66-.4,6.42-2.51,9.67-2.84-.36.12-.83.39-.54.3l2.56-.93c-.28-.16-.38,0-1,0a6,6,0,0,1,1.63-.76c-1.12.51.12.35.67.32-.11,0,0-.17,0-.22,1.48,0,.09-.51,2-.83l-.06.15a15.79,15.79,0,0,1,2-.83c.39.16-.7.35-.68.57,1-.34,1.92-1.13,3-1.17-.42.21-1.07.41-1.49.62a6.2,6.2,0,0,0,2-.33l-.08,0,1.82-.42-.48.06c1.11-1.08,2.64-1,4.28-1.95-1.59.95-.21.33-.25.66.48-.06,1.19-.19,1,0,.76-.49,1.46-.25,2.53-1,.08.08.9-.27.78,0,1.07-.41-.31-.08-.25-.23,1.58-.84,4.07-.85,6.35-2,2-.83,2.31-1.26,4.2-2,.7-.05-.43.51-.43.51a11.57,11.57,0,0,0,2.84-.88c-.18.14.05.15.39.16.79-.27.43-.51,1.52-.7a3.06,3.06,0,0,1-.68.62c.91-.38,1.78-.84,2.73-1.23.31.08-.51.43-.82.64a12.52,12.52,0,0,0,3-1.39l-.73.13c.39-.14.27.16,0,.3-.87.49-1.38.33-1.46.25l.67-.28c-.88-.32-2.75,1-4.15,1.36l.46-.58-1.33.78c-.34,0-.61-.17.06-.44-1.06.12-.84.42-1.77.47-.11,0-.07,0,0-.08l-.94.42c.17-.14-.25-.23.37-.36-1.82.32-2.73,1.18-3.48,1.08l.14-.07c-2.39.89-.14.36-1.86,1.28l-1.45-.34-.15.37c-.25.07-.76.2-.7.06-.87.49.2.08-.28.43-1.29.11-3.29,1.16-3.7.78-.36.36,1.21-.19,0,.37-.52-.38-1.46.55-2.64.66.26-.36,1.34-.55.17-.44-.53.64-2.18.57-3.08.95.07.36-2,.78-3.5,1.38.06-.15-3,.73-4.49,1.05l0-.07c-.17.44-1.69.84-2.75,1.25,0-.22.15-.37.71-.64l-1,.32a3.57,3.57,0,0,1-1.16.59l.17-.34a35.11,35.11,0,0,1-4.46,1.54c0,.27,1.61.24-.19,1-.11-.11-.25-.31.22-.52a3.26,3.26,0,0,1-.87.33l.67-.45c-.83.15-.36.32-1,.49,0-.19-.52,0-.47-.16a4.12,4.12,0,0,0,.8-.25,7.49,7.49,0,0,1-2,.31c.1.09.08.25-.44.45-1.35.46-.54-.07-1.36.09-.29.24-1.2.39-1.13.67a1,1,0,0,1-.69,0c-.66.35-3.27,1.12-2.38,1.16l.19,0-.11.05h0c-2.21,1-4.83,1.45-7.05,2.38l0-.09a40.45,40.45,0,0,0-3.87,1.71c-.4.15-1,.19-.87,0a11.39,11.39,0,0,1-2.62,1c1-.56-.41,0,1-.53a9.77,9.77,0,0,0-3,1.23c.39-.43-1.12.11-1.72.44l1-.21c-.69.32-1.32.56-2,.81l.21-.45c-2.87.77-4.57,2.73-6.87,3.1-.6.55,1.51-.54,1,0-1.24.53-2.71.75-3.09.95-1.74.71-1.31,1.23-3.06,2.08.28,0,.63.13-.55,1-1.17.66-1.68.45-1-.08.27-.18.43-.23.44-.19.35-.27.82-.6.29-.44l-.09.19c-.64.24-2.22,1.26-2,.86-.81.66-.26.4.41,0a35,35,0,0,0-3.79,2.51c.27-.12.56-.17.34,0-2.17,1.52-.79.88-2.11,2.07-.88.53,0-.58-1.26.75-.9.66-.39-.07-.13-.44-1.08,1.27-2.34,2.14-3,2.94,0,0,.12-.21.24-.4l.25-.39c-.31.47-.58.83-.85,1.21l.5-.29c-.36.4-.6.81-.69.74-.16.56.55-.15.17.9-.5.55-.78,2-1.11,2.21.38-1.11.34-1.05.19-1s-.33.16.07-.77c-.13.37-.32.8-.53,1.35-.06.08,0-.1,0-.26-.49,1.09-.38,1.44-.31,1.72a4.86,4.86,0,0,1,.14.56c0,.26.08.64.15,1.24-.22-.29-.26.63-.09,1-.23-1,.15-.5.54.29a4.64,4.64,0,0,0,1.23,2.06,3.27,3.27,0,0,1-.23-.37l-.21-.39c.31.15.67.79,1.4,1.45,0,.17-.68-.6-.48-.3A8,8,0,0,1,141,77.12a5.13,5.13,0,0,0,1.73,1.28c.56.44-.1.32.41.7,1.64.55,1.62,1,3.37,1.39-.41-.39-.51-.35.73-.2l-.44-.11-1-.26c-.7-.17-1.4-.42-1.4-.42s.47.11.94.18l.93.13a15.21,15.21,0,0,1-2.24-.73c.89.18.78.19.48-.15a3.46,3.46,0,0,0,1.64.67,10.32,10.32,0,0,1,1.83.52l-.19.56c2,.79,3.66.49,6.3.78l-.85-.14c.37-.23,1.64.07,2.5-.06-.08.2.46.26.84.37,0-.11,2-.1,2.16-.52l.6.08.6,0a5.59,5.59,0,0,0,2.22-.59,9.5,9.5,0,0,1,2.1-.73c-.55.36.39.27-.91.75.67-.16,1.28-.28,1.26-.41.43,0,1.76-.77,2.41-.77a2.31,2.31,0,0,1,1-.63c.09,0,0,.09,0,.09s1.08-.52.38-.51a10.86,10.86,0,0,0,3.74-1.23l1.85-.9a9.93,9.93,0,0,1,1.58-.6c1.28-.76,2.76-1.79,3.87-2.54,0,.1.05.08-.17.21,1.63-.93.63-1.09,2.42-2.21,1.05-.41-.78.82-.18.51.65.34,2-1.66,3.24-2.36l-.23.26c1-.58,1.77-2,3-3.36,0,0,0,.1.07.07.57-1.13,1.85-3.05,2.63-4.58,0,.59-.28.74.11.6.36-.69-.47,0,.24-1.38.36-.36,1-1.31,1.28-1.32l-.65,1.32c.66-.51.85-1.71,1.18-2.4l.11.15c.78-2.14.42-2.29,1-4.62l-.16.22c-.12-1.35.42-1,.32-2.38l.43-.35c0-.88-.18-3.05-.35-4.57a16.87,16.87,0,0,1,.58,3.82,11.49,11.49,0,0,0-.17-3.38,3.64,3.64,0,0,1,.1,1.12,24.13,24.13,0,0,1-.69-4.08c.4.11.33-1,.16-2.29a13.47,13.47,0,0,1-.27-3.4c-.12-.4-.23-.8-.33-1.21l-.15-.61-.15-.67-.4-1.88c-.15-.67-.27-1.43-.45-2.08-.91.63-1.93,1.39-3,2l-.51.28-.46.24-.95.46c1.3.07-.86.4-.46.87a3.29,3.29,0,0,1-1.08.38,17.68,17.68,0,0,1-1.91.21L184.6,38l.25-.31c.29-.22.06.17,0,.42l-1.22-1.58c.13,0,.22-.1.19-.13l-.21,0,1.33,1.72c.29-.48.43-.52.53-.54s.2,0,.53-.26c-.29,0,.08-.6.8-1a4.64,4.64,0,0,0-.54.21,5.11,5.11,0,0,0-.52.28,2.15,2.15,0,0,1,1.58-1,11.75,11.75,0,0,0,1.79-.34l-.29.12-.28.14a3.26,3.26,0,0,1,.64-.11L188,33.25c-.91,1.13-2.68,2.63-3.27,3.49-.22.06-.54.08-.13-.25a34.74,34.74,0,0,1-3.89,2.36A9.24,9.24,0,0,1,176.91,40l.18-.17c-.46.11-.84.37-1.38.16,0-.06.19-.13,0-.16a2.13,2.13,0,0,1-.67,0,1.06,1.06,0,0,1-.67-.43,2.49,2.49,0,0,0,.39.12A2.61,2.61,0,0,1,174,37.4a3.05,3.05,0,0,1,1.24-2.32c.13.18.61,0,1.22-.18l1-.27a4.92,4.92,0,0,1,.8-.14l0,.07a4.16,4.16,0,0,1,1.67,0c.41.13.53.19.65.46s.1.53-.23,1a4.27,4.27,0,0,1-1.49,1.13c-.82.09-2.5.43-4.23.72a24.67,24.67,0,0,1-5.2.35c.47.07-.07.35-.62.4a7.9,7.9,0,0,0-1.26.06c-.35,0-.35-.06-.29-.16s0,0,.07,0,0-.25-.11.12a1.05,1.05,0,0,1-.14.23c-.06,0,0,.13-.05,0l-.24.17h.1a.39.39,0,0,1,.14.06.53.53,0,0,1-.14-.23c0-.13,0-.12-.09,0l-.45-1.36c-.41.23-.83.51-1.23.72l.09.56a41.82,41.82,0,0,0-5,2,9.92,9.92,0,0,1-4.16,1.14c-.68.31-1.57.52-2.26.78l0-.29c-1,.16-1.71.24-2.5.33a7,7,0,0,0-.76.12,4.87,4.87,0,0,0-.88.29,3.19,3.19,0,0,0-1.06.73,2.26,2.26,0,0,0-.51.86,2.19,2.19,0,0,0,0,1.15l.4,1.74,1.51-.87.19-.11-.15.18-1.16,1.33L148,45.91a2.3,2.3,0,0,1-.16-.85,2.28,2.28,0,0,0,.05.87l.51,2.05L150,46.91c1-.67,1.08-1.49,2.16-2.13l.57.16c1.12-.66,2.29-1.3,3.39-2.08a12.33,12.33,0,0,0,1.57-1.29,8,8,0,0,0,.7-.75l.16-.2.08-.1.12-.16.45-.64c0,.08,0,.22-.4.8a15.18,15.18,0,0,0,2.54-3.74c.58-1.28,1-2.34.36-1.69a1.32,1.32,0,0,0,.3-.37,1.36,1.36,0,0,0,.21-.52c-.66.16-1.74.47-2.77.81s-2,.69-2.72,1l.36-.4c-.48.23-.81.41-1.08.57a2.66,2.66,0,0,0-.3.19l-.23.15a15.58,15.58,0,0,1-1.45.71c-.38.1-.4-.09.11-.2-1.28.32-.85.61-2.36,1.07l.47-.39a3.72,3.72,0,0,0-1.69,1.05,6.49,6.49,0,0,1-2.59.93,3.09,3.09,0,0,1-1.35,1.08c-.14,0,.08-.23.19-.32-2,1-2.67,2-4.08,2.66a.32.32,0,0,0-.31,0A30.4,30.4,0,0,1,145,41.4c-.13-.22-1.38.53-.6-.4a34.65,34.65,0,0,1-3.47,3,.71.71,0,0,1-.2,0l.1-.11a3.17,3.17,0,0,0-.68.58c-.38.25-.62.41-1,.67-.26,0-1.35,1-1.88,1.49.23.17-.49.78.32.34-.1.06.08-.12.42-.45a2.67,2.67,0,0,0,.21-.22l0,.05c.35-.31.81-.73,1.35-1.18a4.4,4.4,0,0,1-1.42,1.35c-.16.38-.32.8-.43,1A19.56,19.56,0,0,0,135.33,49l1.42,1.36a1.06,1.06,0,0,1,.39-.18c1.38-1.67,3.44-3.75,4-5.11.37-.49.6-.41.81-.52a7.63,7.63,0,0,0-.58.79c.75-1,2.45-2.69,2.38-3.16,1.18-1-.34.87,1.06-.73l-.11.29c3.28-2.69,3.89-5.66,7.5-8.67-.24.22-.36.32-.45.33,3.72-3.8,6.72-8.6,10.18-12.55a6.17,6.17,0,0,0,1.22-2.27l.43-.09.57-1.49c1-2,2.7-2.81,3.73-5.46l-.35.21C168,10.92,169,9,169.1,9.21a.93.93,0,0,1,.26-.68l.15,0,.9-2.31c1-1.65.46.57,1.7-1.94.39-1,.85-2.87.59-2.56s-.55.92-.7.88l.33-.89c-.35-.35-.48-1.19-1.75.74l-.43,1.56-.42.36.56-1.22a3.29,3.29,0,0,0-.68,1.65,1.26,1.26,0,0,0-.53.48L168.74,7c-.25.08,0-.79-.57.09-.16.75.69-.43.24.71-.55.57-.6.29-.88,1.16-.17.05-.14-.15,0-.49a14.3,14.3,0,0,0-1,2.35c-.62.56-1.35,2.34-1.68,2a8,8,0,0,1-.83,2c.29-1.41-1.54,2.28-1.81,1.67-.15,1.09-1.85,3.07-2.67,4.64a1,1,0,0,1,.19-.41,12.28,12.28,0,0,1-1.36,1.38c.24.34-.6,1.63-.93,2.43-1,.73.09-.86-.43-.78.29.14-1,1.86-.58,1.7-.75.59-.58.56-1.13.74.28.43-.48.72-.73,1.51-1,.89-.57,0-1.39,1.22C152.63,29.36,153.32,28.23,153.32,28.23Zm-11,16.94h0l-.56.44Zm2.38-1.7c-.3.19-.67.44-1.05.71-.14,0-.11-.17.14-.33C143.66,44,144.26,43.65,144.66,43.47Zm-6.2,2.27c.34-.35.5-.41.58-.41l-.61.58,0,.06A.46.46,0,0,1,138.47,45.75Z"/><path class="cls-1" d="M138.06,46.59l-.13.15.25-.14.07-.18Z"/><path class="cls-1" d="M182.59,43.59h0Z"/><polygon class="cls-1" points="157.24 44.22 157.22 44.15 156.98 44.28 157.24 44.22"/><path class="cls-1" d="M198.48,39.53a.5.5,0,0,0,.23,0A.66.66,0,0,0,198.48,39.53Z"/><path class="cls-1" d="M205.24,37.49l1-.2C205.8,37.36,205.49,37.43,205.24,37.49Z"/><path class="cls-1" d="M210.47,36a.3.3,0,0,0,.07-.15h0Z"/><path class="cls-1" d="M140.53,74a.69.69,0,0,0,.11.14C141,74.48,140.75,74.27,140.53,74Z"/><path class="cls-1" d="M153.51,56.37c-.21.18-.42.35-.65.51C153.26,56.69,153.57,56.52,153.51,56.37Z"/><path class="cls-1" d="M166.1,77.47h0l.16,0Z"/><path class="cls-1" d="M151.83,57.48a4.93,4.93,0,0,0,1-.59A7.64,7.64,0,0,0,151.83,57.48Z"/><path class="cls-1" d="M233,29.11l.25-.07s0,0,0-.05Z"/><path class="cls-1" d="M233.26,29l.27-.12A.67.67,0,0,0,233.26,29Z"/><path class="cls-1" d="M234.09,28.62l-.56.25A1.43,1.43,0,0,0,234.09,28.62Z"/><path class="cls-1" d="M226.08,31.13l0,.12A.14.14,0,0,0,226.08,31.13Z"/><path class="cls-1" d="M224,31.81a13.51,13.51,0,0,0,2-.46l0-.1C225.75,31.5,224.43,31.5,224,31.81Z"/><path class="cls-1" d="M214.92,33.32l1.77-.47c-.34,0-.78,0,0-.3C214.39,32.94,217.22,32.65,214.92,33.32Z"/><path class="cls-1" d="M209.45,34.86c.92-.34-.06-.15,0-.22C208.86,34.92,208.72,35,209.45,34.86Z"/><path class="cls-1" d="M170.42,47.66v-.27C169.72,47.69,170.45,47.48,170.42,47.66Z"/><polygon class="cls-1" points="163.63 51.81 164.37 51.67 164.6 51.32 163.63 51.81"/><polygon class="cls-1" points="158.65 52.03 158.94 51.85 157.82 52.48 158.65 52.03"/><path class="cls-1" d="M174.38,76.74l-.35-.18C173.59,76.85,173.65,77.22,174.38,76.74Z"/><path class="cls-1" d="M193.67,54.34a2.78,2.78,0,0,0,.4-1.69C194,53.34,193.7,54,193.67,54.34Z"/><path class="cls-1" d="M163.71,39.05l.47-.36-.46.29-.47.28Z"/></g></g></svg>